<svg xmlns="http://www.w3.org/2000/svg" width="630" height="800"><path d="M515.09 56.84c-23.44-52.5-194.69-90-280.81 35.42-54.43 79.26-44.46 190.04-44.46 190.04l25.085 87.04h-7.82s15.625 105.625 123.75 160.625l151.875-3.125c100-64.375 111.685-136.395 116.525-153.685l.635-.32 11.465-93.605C626.125 67.355 515.09 56.84 515.09 56.84" fill="#744C45"/><path d="M203.645 677.66s-21.25-59.06-23.435-65c-2.19-5.935-3.75-5.31-11.25-5.31s-20.935 10.935-34.375 21.56c-13.44 10.625-16.25 28.44-16.25 28.44s7.81 20.31 11.875 28.125c4.06 7.81 18.125 57.81 21.25 65 3.125 7.185 15.31 19.06 24.06 22.81 8.75 3.75 21.995 1.335 21.995 1.335 29.175-10.665 87.645-98.42 87.645-98.42l1.195 8.84c5.845 42.665 13.21 92.885 17.205 106.41h199.37c3.02-10.23 7.975-41.45 12.735-74.52l2.025-14.255L538.1 796.5h52.735s-19.07-163.835-23.745-199.19c-4.675-35.35-31.235-51.625-48.63-56.11-17.395-4.485-89.575-27.265-89.575-27.265l-51.28 4.51s-56.09 19.95-70.675 22.755c-14.59 2.81-34.79 13.465-42.08 29.18l-61.205 107.28" fill="#FFE584"/><path d="m429.275 515.16-1.46-12.445 1.07-13.135-50.215 2.99v10.145l-1.065 19.97-87.07 22.635s29.535 35.665 112.66 35.665c95.18 0 120.685-37.79 120.685-37.79l-94.605-28.035" fill="#F8D4B3"/><path d="M378.8 483.375h49.145l.41 23.915s-3.635 19.15-38.35 15.395c-11.56-1.25-12.775-11.03-12.775-11.03l1.57-28.28" fill="#CF957E"/><path d="M247.505 119.34c120.83-162.5 347.5-29.165 363.33 70-14.165-112.5-95.745-132.5-95.745-132.5-23.44-52.5-194.69-90-280.81 35.42-54.43 79.26-44.46 190.04-44.46 190.04s14.77 7.565 14.35 7.875c-5-50 9.08-124.77 43.335-170.835" fill="#C99B88"/><path d="M233.34 290.895s-10.1-19.595-29.095-13.655c-39.63 12.385-26.92 98.28 38.56 105.69m328.365-91.705s10.1-19.595 29.1-13.655c39.625 12.38 29.095 98.28-37.41 105.69" fill="#F7CCAA"/><path d="M569.545 272.4c.81 33.21.33 86.185-14.035 129.185-26.875 80.45-112.63 98.68-153.335 98.68-40.71 0-126.46-18.23-153.335-98.68-15.19-45.445-15.71-102.075-13.745-134.66 0 0-.815-25.085 30.74-47.585 30.28-21.585 129.235-33.72 161.98-48.75 57.21-26.25 63.645-57.5 63.645-57.5s75.625 58.75 78.085 159.31" fill="#F7CCAA"/><path d="M357.76 304.73c0 24.825-15.43 44.955-34.46 44.955-19.035 0-34.47-20.13-34.47-44.955 0-24.83 15.435-44.96 34.47-44.96 19.03 0 34.46 20.13 34.46 44.96m159.605 0c0 24.825-15.43 44.955-34.465 44.955-19.035 0-34.465-20.13-34.465-44.955 0-24.83 15.43-44.96 34.465-44.96 19.035 0 34.465 20.13 34.465 44.96" fill="#FFFFFE"/><path d="M352.39 311.215c0 16.915-9.515 30.625-21.25 30.625s-21.25-13.71-21.25-30.625c0-16.91 9.515-30.625 21.25-30.625s21.25 13.715 21.25 30.625m100.825 0c0 16.915 9.51 30.625 21.25 30.625 11.735 0 21.25-13.71 21.25-30.625 0-16.91-9.515-30.625-21.25-30.625-11.74 0-21.25 13.715-21.25 30.625" fill="#1A1919"/><path d="M403.215 472.21c-52.5 0-56.25-61.25-56.875-75 0 0 55.835 17.5 111.67 0-.625 13.75-4.375 75-56.875 75" fill="#DF7370"/><path d="M304.155 354.75c0 7.77-13.11 14.07-29.275 14.07-16.17 0-29.28-6.3-29.28-14.07 0-7.775 13.11-14.075 29.28-14.075 16.165 0 29.275 6.3 29.275 14.075m254.87 0c0 7.77-13.11 14.07-29.28 14.07s-29.275-6.3-29.275-14.07c0-7.775 13.105-14.075 29.275-14.075 16.17 0 29.28 6.3 29.28 14.075" fill="#EC9896"/><path d="M352.015 300.96a6.277 6.277 0 0 1-6.28 6.275 6.271 6.271 0 0 1-6.27-6.275 6.271 6.271 0 0 1 6.27-6.275c3.47 0 6.28 2.81 6.28 6.275m142.055 0a6.276 6.276 0 0 1-6.275 6.275c-3.47 0-6.28-2.81-6.28-6.275a6.277 6.277 0 0 1 6.28-6.275 6.276 6.276 0 0 1 6.275 6.275" fill="#FFFFFE"/><path d="m238.005 360.175-2.915-33.75s-8.215-20.93-20.835-24.165c-16.25-4.17-16.575 23.795-5.415 39.58 17.08 24.17 29.165 18.335 29.165 18.335m330.835 0 2.92-33.75s8.21-20.93 20.83-24.165c16.25-4.17 16.58 23.795 5.42 39.58-17.08 24.17-29.17 18.335-29.17 18.335" fill="#CF957E"/><path d="M398.925 418.04c19.75 0 37.405 9.23 49.205 23.72 8.37-17.52 9.555-37.42 9.88-44.55-55.835 17.5-111.67 0-111.67 0 .295 6.475 1.285 23.505 7.745 39.71 11.59-11.665 27.39-18.88 44.84-18.88" fill="#C2614F"/><path d="M326.335 270.785c7.985 0 15.595 1.45 22.615 3.99-6.315-9.19-15.45-15.005-25.65-15.005-11.52 0-21.69 7.4-27.95 18.72 9.135-4.875 19.695-7.705 30.985-7.705m153.75 0c-7.985 0-15.595 1.45-22.61 3.99 6.31-9.19 15.445-15.005 25.645-15.005 11.525 0 21.69 7.4 27.95 18.72-9.135-4.875-19.7-7.705-30.985-7.705" fill="#D2E0EB"/><path d="m169.585 626.1-18.125-41.25s6.565-26.875 5-40.94c-1.565-14.06-12-26.63-19.375-33.75-9.065-8.75-13.75-15.315-15.31-20-1.565-4.69-2.19-24.375-2.19-24.375s-10 .625-12.815 3.435c-2.81 2.815-3.435 15.625-4.375 19.69-.405 1.765-37.185 82.5-37.185 82.5l10.31 17.815 41.565 22.81L134.9 657.66s27.495-6.875 34.685-31.56" fill="#F7CCAA"/><path d="M227.58 119.335c4.99 21.99 153.215 31.7 190.77 22.135 20.955-5.34 13.36-11.6-1.065-12.045-136.505-4.16-149.855-41.8-149.855-41.8l-39.85 31.71" fill="#C99B88"/><path d="M352.59 222.835c-13.125-10-46.25-15-64.375 6.875" stroke="#1A1919" stroke-width="7" stroke-linecap="round" stroke-linejoin="round" fill="none"/><path d="M354 278.67c-14.47-30.49-75.065-30.625-66.41 41.295" stroke="#1A1919" stroke-width="8" stroke-linecap="round" stroke-linejoin="round" fill="none"/><path d="M233.34 290.895s-10.1-19.595-29.095-13.655c-39.63 12.385-26.92 98.28 38.56 105.69m-37.85-82.535s13.06-8.905 29.095 26.125m335.495-54.12c.81 33.21.33 86.185-14.035 129.185-26.875 80.45-112.63 98.68-153.335 98.68-40.71 0-126.46-18.23-153.335-98.68-15.19-45.445-15.71-102.075-13.745-134.66 0 0-.815-25.085 30.74-47.585 30.28-21.585 129.235-33.72 161.98-48.75 57.21-26.25 63.645-57.5 63.645-57.5s75.625 58.75 78.085 159.31zm-118.83-49.565c13.125-10 46.25-15 64.375 6.875" stroke="#1A1919" stroke-width="7" stroke-linecap="round" stroke-linejoin="round" fill="none"/><g stroke="#1A1919" stroke-linecap="round" stroke-linejoin="round" fill="none"><path d="M450.785 281.62c11.82-33.365 76.56-35.83 67.635 38.345" stroke-width="8"/><path d="M571.17 291.225s10.1-19.595 29.1-13.655c39.625 12.38 29.095 98.28-37.41 105.69m36.32-82.535s-13.055-8.905-29.09 26.125m-294.375-28.135 11.03 6.875m232.515 0 14.785-6.875m-131.87 79.12v-10M190.92 286.1s-11.07-114.58 43.36-193.84C320.4-33.16 491.65 4.34 515.09 56.84c0 0 110.675 13.435 95.885 225.31M134.51 656.805s-15.965-47.29-26.445-57.945m43.76-16.17s5.905 29.305 17.02 42.445m-7.125-16.245s15.08-8.23 17.79 2.395c2.365 9.295 29.06 87.025 38.945 101.06M174.06 618.48c-3.87 10.06-16.825 37.12-45.975 43.03m-1.435-25.5c-4.3 6.21-12.52 19.845-7.43 26.86 6.705 9.25 26.975 67.495 33.02 86.47 6.05 18.995 29.6 31.875 45.16 23.165 34.06-19.075 87.76-96.305 87.76-96.305m92.445-157.755s-56.09 19.95-70.675 22.755c-14.59 2.81-34.79 13.465-42.08 29.18-7.3 15.71-59.895 107.595-59.895 107.595m223.93-162.895s72.18 22.78 89.575 27.27c17.395 4.485 43.955 19.61 48.63 54.96 4.675 35.355 23.745 199.19 23.745 199.19M277.75 619.755c6.72 53.31 11 87.29 14.075 110.12m242.69-108.785s-7.715 61.25-15.145 111.315m5.245 11.93L538.1 796.5M377.605 522.685l1.065-19.97m50.215 19.97-1.07-19.97m-24.6-30.505c-52.5 0-56.25-61.25-56.875-75 0 0 55.835 17.5 111.67 0-.625 13.75-4.375 75-56.875 75" stroke-width="7"/></g><path d="M352.39 311.215c0 16.915-9.515 30.625-21.25 30.625s-21.25-13.71-21.25-30.625c0-16.91 9.515-30.625 21.25-30.625s21.25 13.715 21.25 30.625m100.825 0c0 16.915 9.51 30.625 21.25 30.625 11.735 0 21.25-13.71 21.25-30.625 0-16.91-9.515-30.625-21.25-30.625-11.74 0-21.25 13.715-21.25 30.625" fill="#1A1919"/><path d="M352.015 300.96a6.277 6.277 0 0 1-6.28 6.275 6.271 6.271 0 0 1-6.27-6.275 6.271 6.271 0 0 1 6.27-6.275c3.47 0 6.28 2.81 6.28 6.275m142.055 0a6.276 6.276 0 0 1-6.275 6.275c-3.47 0-6.28-2.81-6.28-6.275a6.277 6.277 0 0 1 6.28-6.275 6.276 6.276 0 0 1 6.275 6.275" fill="#FFFFFE"/><path d="M205.21 367.465s9.375 94.375 125.205 161.875m267.715-160s-4.795 88.34-117.5 157.5" stroke="#1A1919" stroke-width="7" stroke-linecap="round" stroke-linejoin="round" fill="none"/><path d="M522.23 543.905s-26.38 37.08-118.6 37.08c-85.25 0-109.785-34.48-109.785-34.48" stroke="#1A1919" stroke-width="6" stroke-linecap="round" stroke-linejoin="round" fill="none"/><path d="M121.285 572.35s-19.55-23.3-7.175-48.155c-6.565-7-13.8-25.6-12.135-37.68 1.46-10.575 2.915-19.55 13.96-21.63 1.58-.3 4.71 1.64 4.225 4.915-1.075 7.225.185 18.865 7.65 29.12 8.065 11.095 25.525 22.785 28.495 41.745 2.935 18.715-6.72 47.62-6.72 47.62m-82.19-11.875s10.625 30.835 43.44 28.025" stroke="#1A1919" stroke-width="7" stroke-linecap="round" stroke-linejoin="round" fill="none"/><path d="M107.88 319.725c-.105 4.05-3.525 7.25-7.65 7.165-4.11-.09-7.38-3.44-7.27-7.48l2.99-121.275c.105-4.025 3.53-7.22 7.645-7.13 4.115.08 7.375 3.43 7.28 7.475l-2.995 121.245zm-31.725 8.52c-4.105.255-7.64-2.8-7.895-6.84L60.785 200.34c-.245-4.015 2.89-7.5 6.995-7.755 4.12-.25 7.66 2.82 7.905 6.835l7.475 121.06c.255 4.045-2.88 7.51-7.005 7.765zM50.61 329.95c-4.08.6-7.865-2.16-8.47-6.165l-17.89-119.96c-.605-3.995 2.225-7.725 6.3-8.31 4.08-.595 7.87 2.155 8.465 6.135L56.91 321.635c.595 3.995-2.225 7.72-6.3 8.315zm63.37-166.085c-15.54-16.355-47.605-31.415-88.285-15.3-23.09 9.155-26.27 28.955-19.655 51.59l27.82 152.21 43.485 10.92 43.71-17.805s7.155-133.38 7.38-133.395c1.455-18.535-1.425-34.5-14.455-48.22" fill="#B4B5B4"/><path d="M107.88 319.725c-.105 4.05-3.525 7.25-7.65 7.165-4.11-.09-7.38-3.44-7.27-7.48l2.99-121.275c.105-4.025 3.53-7.22 7.645-7.13 4.115.08 7.375 3.43 7.28 7.475l-2.995 121.245zm-31.725 8.52c-4.105.255-7.64-2.8-7.895-6.84L60.785 200.34c-.245-4.015 2.89-7.5 6.995-7.755 4.12-.25 7.66 2.82 7.905 6.835l7.475 121.06c.255 4.045-2.88 7.51-7.005 7.765zM50.61 329.95c-4.08.6-7.865-2.16-8.47-6.165l-17.89-119.96c-.605-3.995 2.225-7.725 6.3-8.31 4.08-.595 7.87 2.155 8.465 6.135L56.91 321.635c.595 3.995-2.225 7.72-6.3 8.315zm63.37-166.085c-15.54-16.355-47.605-31.415-88.285-15.3-23.09 9.155-26.27 28.955-19.655 51.59l27.82 152.21 43.485 10.92 43.71-17.805s7.155-133.38 7.38-133.395c1.455-18.535-1.425-34.5-14.455-48.22z" stroke="#1A1919" stroke-width="6" stroke-linecap="round" stroke-linejoin="round" fill="none"/><path d="M121.055 345.48S88.45 373.6 91.66 408.17c3.22 34.58 20.705 208.135 21.45 213.455 2.66 19.08-33.67 23.645-35.005 1.295-.325-5.365-3.105-178.945-4.175-213.655-1.06-34.705-40.07-56.9-40.07-56.9s60.79 2.455 87.195-6.885" fill="#86BF55"/><path d="M121.055 345.48S88.45 373.6 91.66 408.17c3.22 34.58 20.705 208.135 21.45 213.455 2.66 19.08-33.67 23.645-35.005 1.295-.325-5.365-3.105-178.945-4.175-213.655-1.06-34.705-40.07-56.9-40.07-56.9s60.79 2.455 87.195-6.885z" stroke="#1A1919" stroke-width="6" stroke-linecap="round" stroke-linejoin="round" fill="none"/><path d="M62.195 553.405s-7.89 4.46-7.755 10.26c.135 5.81 3.05 11.67 13.06 11.39 10.02-.275 29.265-3.38 33.3-5.315 6.64-3.18 6.2-15.03-1.125-17.02-10.055-2.735-22.07-2.785-37.48.685" fill="#F7CCAA"/><path d="M62.195 553.405s-7.89 4.46-7.755 10.26c.135 5.81 3.05 11.67 13.06 11.39 10.02-.275 29.265-3.38 33.3-5.315 6.64-3.18 6.2-15.03-1.125-17.02-10.055-2.735-22.07-2.785-37.48.685z" stroke="#1A1919" stroke-width="7" stroke-linecap="round" stroke-linejoin="round" fill="none"/><path d="M54.565 529.025s-9.245 4.25-9.645 10.755c-.4 6.505 2.31 13.34 13.54 13.975 11.235.635 33.055-1.025 37.755-2.81 7.73-2.925 8.36-16.225.345-19.155-10.99-4.005-24.425-5.195-41.995-2.765" fill="#F7CCAA"/><path d="M54.565 529.025s-9.245 4.25-9.645 10.755c-.4 6.505 2.31 13.34 13.54 13.975 11.235.635 33.055-1.025 37.755-2.81 7.73-2.925 8.36-16.225.345-19.155-10.99-4.005-24.425-5.195-41.995-2.765z" stroke="#1A1919" stroke-width="7" stroke-linecap="round" stroke-linejoin="round" fill="none"/><path d="M39.495 479.22c4.77-2.245 19.3.085 26.905 1.795 10.625 2.385 17.625 19.53 3.25 21.405s-27.91 1.89-33.465-.385c-6.875-2.815-7.315-17.815 3.31-22.815" fill="#F7CCAA"/><path d="M39.495 479.22c4.77-2.245 19.3.085 26.905 1.795 10.625 2.385 17.625 19.53 3.25 21.405s-27.91 1.89-33.465-.385c-6.875-2.815-7.315-17.815 3.31-22.815z" stroke="#1A1919" stroke-width="7" stroke-linecap="round" stroke-linejoin="round" fill="none"/><path d="M44.885 507.405s-8.555-.13-9.495 6.745c-.935 6.875 1.4 14.34 13.275 15.905 11.875 1.56 28.625 2.36 33.755.845 8.44-2.5 10.595-17.75 1.875-20.31-13.65-4.015-27.61-4.515-39.41-3.185" fill="#F7CCAA"/><path d="M44.885 507.405s-8.555-.13-9.495 6.745c-.935 6.875 1.4 14.34 13.275 15.905 11.875 1.56 28.625 2.36 33.755.845 8.44-2.5 10.595-17.75 1.875-20.31-13.65-4.015-27.61-4.515-39.41-3.185z" stroke="#1A1919" stroke-width="7" stroke-linecap="round" stroke-linejoin="round" fill="none"/><path d="m516.435 796.395 13.15-90.295c-36.25-36.25-46.425-90-46.425-90s-1.37-66.565-12.725-93.605l-21.79-8.75c14.085 52.545 12.76 99.405 12.76 99.405H352.59s-1.325-46.86 12.76-99.405l-21.79 8.75c-11.36 27.04-12.725 93.605-12.725 93.605s-12.5 56.25-48.75 92.5l14.58 87.05 219.77.745" fill="#F1A948"/><path d="M406.46 714.85c-85 0-107.5-25-107.5-23.75-2.405 2.84-14.22 14.84-16.875 17.5l14.58 87.05 219.77.745 13.15-90.295c-2.385-2.385-10.965-13.745-13.125-16.25 0 .625-25 25-110 25" fill="#D89145"/><path d="m516.435 796.395 13.15-90.295c-36.25-36.25-46.425-90-46.425-90s-1.37-66.565-12.725-93.605l-21.79-8.75c14.085 52.545 12.76 99.405 12.76 99.405H352.59s-1.325-46.86 12.76-99.405l-21.79 8.75c-11.36 27.04-12.725 93.605-12.725 93.605s-12.5 56.25-48.75 92.5l14.58 87.05" stroke="#1A1919" stroke-width="7" stroke-linecap="round" stroke-linejoin="round" fill="none"/></svg>