<svg version="1.1" id="Layer_1" xmlns="http://www.w3.org/2000/svg" x="0" y="0" viewBox="0 0 292.5 292.7" style="enable-background:new 0 0 292.5 292.7" xml:space="preserve"><style>.st0{fill:#fff}.st1{fill:#1c75bc;stroke-width:1.7972;stroke-miterlimit:10}.st1,.st2{stroke:#8bc25c}.st2,.st3{stroke-width:1.7972;stroke-miterlimit:10}.st2,.st3{fill:none}.st3{stroke:#004b67}</style><path class="st0" d="M7.5 8.2H283v275.5H7.5z"/><path class="st1" d="M30.2 148c.3 38.5.3 78.5 0 117.7m5 11.1c-.5-15.8-1.3-31.4-2.1-47.1l1.6 46.8c.2.1.3.2.5.3z"/><path class="st1" d="M33.1 229.7 30.2 148c.2 27.4 1.5 54.5 2.9 81.7zm6.3 49.6c-2.9-43.9-5.7-87.4-9.2-131.3l9.2 131.3zm0-44.2c-2.8-29.2-5.7-58.3-9.2-87.1l9.2 87.1zm4.8 46-4.8-46c1.5 15.3 3 30.7 4.5 46.1.1 0 .2-.1.3-.1zm4.7 0L30.2 148c6.3 44.7 12.3 88 18.3 133 .2 0 .3.1.4.1zm5.1.6C46.1 237 38 192.2 30.2 148l23.6 133.7h.2z"/><path class="st1" d="M58.2 283.5c.3 0 .6.1.8.2L30.2 148c6.6 41 17.8 79.7 25.4 122.2.8 4.5 1.7 8.9 2.6 13.3z"/><path class="st2" d="M30.2 148 64 283.4M30.2 148l39.6 138M30.2 148l45.4 139.7M30.2 148l50.2 138M30.2 148 86 286M30.2 148 92 286.8M30.2 148l67.6 138.6M30.2 148l73.4 138M30.2 148l79.9 138.3M30.2 148l86.9 139.1M30.2 148l93.1 138M30.2 148l100.2 137.9M30.2 148l107.5 137.6M30.2 148l114.2 136.1M30.2 148 153 284.3M30.2 148l133.7 138.4M30.2 148l142.3 137.4M30.2 148l153.2 137.9M30.2 148l158.5 133M30.2 148l166.4 130M30.2 148l187.6 136.3M30.2 148l192.3 129.7M30.2 148l196.7 122.9M30.2 148l200.9 116M30.2 148 235 256.9M30.2 148l208.5 101.7M30.2 148l211.9 94.3M30.2 148l215 86.9M30.2 148l218 79.3M30.2 148l220.6 71.7M30.2 148l223 63.9M30.2 148l225.1 56.1M30.2 148l226.9 48.2M30.2 148l228.4 40.3M30.2 148l229.7 32.3M30.2 148l230.7 24.2M30.2 148l231.4 16.2M30.2 148l231.8 8.1M30.2 148h231.9"/><path class="st1" d="M21.8 148h8.4-8.4zm0 .3 8.4-.3-8.4.3z"/><path class="st1" d="M21.7 148.7c2.8-.2 5.7-.5 8.5-.7l-8.5.6v.1zm0 .2c2.8-.3 5.7-.6 8.5-.9l-8.5.9zm-.1.3 8.6-1.2c-2.8.4-5.7.8-8.6 1.2zm0 .3c2.9-.5 5.8-1 8.6-1.5l-8.6 1.5zm-.1.8c2.9-.7 5.8-1.5 8.7-2.3l-8.7 1.9c0 .1 0 .1-.1.2 0 .1 0 .2.1.2z"/><path class="st1" d="M21.4 150.2c2.9-.7 5.9-1.4 8.8-2.2l-8.8 2.2zm.1.3c2.9-.8 5.8-1.6 8.7-2.5l-8.7 2.5zm.1.3v.1c2.9-1 5.7-1.9 8.6-2.9l-8.6 2.8z"/><path class="st1" d="M21.6 150.9v.2l8.5-3.1c-2.7 1-5.6 2-8.5 2.9zm.1.5c0 .1 0 .1 0 0 2.8-1.1 5.7-2.2 8.5-3.4l-8.5 3.4z"/><path class="st1" d="M21.8 151.6v.1l8.4-3.7c-2.8 1.1-5.6 2.3-8.4 3.6z"/><path class="st1" d="m30.2 148-8.4 4.1c2.8-1.4 5.6-2.7 8.4-4.1z"/><path class="st1" d="M30.2 148c-2.8 1.4-5.6 2.9-8.4 4.4v.1l8.4-4.5zm-8.4 4.9 8.4-4.9c-2.8 1.6-5.6 3.2-8.4 4.9 0-.1 0-.1 0 0zm0 .4 8.4-5.3-8.4 5.1v.2z"/><path class="st1" d="m21.7 153.7 8.5-5.7c-2.8 1.8-5.7 3.6-8.5 5.5v.2zm-.1.6 8.6-6.3c-2.9 2-5.7 4.1-8.6 6.1v.2zm-.2.6c2.9-2.3 5.9-4.6 8.8-6.9l-8.8 6.9z"/><path class="st1" d="M21 155.7c3.1-2.6 6.1-5.2 9.2-7.8l-9.2 7.8zm9.2-7.7-9.3 8.4v.1c3.2-2.8 6.3-5.7 9.3-8.5zm0 0c-2.7 2.6-5.3 5.2-8 7.7"/><path class="st1" d="m21 157.5 9.2-9.5c-3.1 3-6.2 6-9.2 9.1v.4zm9.2-9.5c-2.3 2.5-4.6 5.1-6.9 7.6m-2.4 3.5 9.3-11.1c-3.1 3.6-6.2 7.2-9.3 10.7v.2c-.1.1-.1.2 0 .2zm9.3-11.1c-3.1 3.9-6.2 7.9-9.2 11.8l9.2-11.8zM21 160.7c3.1-4.2 6.2-8.5 9.2-12.7L21 160.7zm-.1 1.1c0 .2.1.4.1.6 3.1-4.8 6.2-9.5 9.2-14.4l-9.3 13.8z"/><path class="st1" d="M21 162.5v.2l9.2-14.7c-3.1 4.8-6.1 9.7-9.2 14.5zm-.2 2.2c3.1-5.5 6.3-11.1 9.4-16.7l-9.3 16.1c0 .2-.1.3-.1.5v.1z"/><path class="st1" d="M30.2 148c-2.4 4.6-4.9 9.2-7.3 13.8m7.3-13.8c-2.1 4.7-4.7 9.7-7.4 15.1"/><path class="st1" d="M30.2 148c-2.1 4.7-4.7 9.7-7.3 16.4m7.3-16.4c-2.1 6-5.9 12.2-7.3 18.1"/><path class="st1" d="M30.2 148c-2.1 6-4.7 13.5-7.3 20.1"/><path class="st1" d="M30.2 148c-3.4 7.2-4.7 14.7-7.4 22.6"/><path class="st1" d="M30.2 148c-3.4 8.5-4.7 17.2-7.3 25.6m7.3-25.6c-2.1 9.7-4.7 21-7.8 31.1m7.8-31.1c-2.1 12.2-4.7 26-8.1 38"/><path class="st1" d="M30.2 148c-3.4 14.7-4.7 31-8.1 46.2m-.4 14.4-1.2 7.8v.1l1.2-7.9z"/><path class="st1" d="M30.2 148c-3.4 18.5-5.9 36-7.8 55.2m-.1 20-.9 8.9c0 .1.1.3.1.4.3-3.1.6-6.2.8-9.3zm7.9-75.2c-2.1 23.5-5.9 46-7.4 69.9"/><path class="st1" d="M30.2 148c-3.4 31-2.1 62.2-6.6 94m3.2 2.8 3.4-96.7c-1.5 31.7-2.6 64.1-3.6 96.4.1.1.2.2.2.3z"/><path class="st3" d="M30.7 148c.5-43.3.5-85.8.2-129.1"/><path class="st3" d="M30.7 148c-.7-43.3 5.5-85.8 5.4-129.6"/><path class="st3" d="M30.7 148c1.7-43.3 5.5-85.8 9-130"/><path class="st3" d="M30.7 148C32.4 104.7 41.2 61 44 17.7M30.7 148c4.5-33.6 9-67.2 14-100.8 1.4-9.7 2.9-19.3 4.4-29M30.7 148C36.9 114.4 42 80.5 47.9 46.9c1.7-9.5 3.4-19 5.3-28.5M30.7 148C39.9 104.7 50 62.2 58.5 18.8"/><path class="st3" d="M30.7 148c9.2-43.3 23-85.8 32.6-129.4M30.7 148c14.2-47.4 24.5-88.4 39-136.1M30.7 148c15.4-48.6 30.2-91.7 45-138.7"/><path class="st3" d="M30.7 148C46.1 99.4 61.8 64.9 78.6 16.4"/><path class="st3" d="M30.7 148c1.6-7.4 5.4-13.6 7.9-21.1C54.8 85.6 69.4 59.4 85.8 18"/><path class="st3" d="M30.7 148c2.9-3.6 2.9-7.4 4.2-11.1C56.2 91.9 70 59.1 90 14.7"/><path class="st3" d="M30.7 148C53.6 99.4 73.2 63 95.9 14.2"/><path class="st3" d="M30.7 148c4.2-8.6 7.9-17.3 12.9-26.1C67.3 83.1 76.5 55.2 100 16.4M30.7 148c26.7-48.6 52.8-89.5 79.6-137.8M30.7 148c29.2-48.6 52-82.6 82.2-131.6M30.7 148c15.4-22.4 65.1-96 82.5-122.5"/><path class="st3" d="M30.7 148c4.2-8.6 12.9-14.9 16.7-23.6 3.7-6.3 10-12.5 15-18.7 26.2-35 32.1-45.8 56.6-79M30.7 148c37.9-48.6 56.2-71.5 93.8-120.1M30.7 148c22.2-24.1 90-107.6 110.3-131.6"/><path class="st3" d="M30.7 148C73.6 99.4 110.4 59.5 154 11"/><path class="st3" d="M30.7 148c9.1-11.1 20.4-21.1 30.4-32.4 37.5-38.8 65.3-64.5 97.6-101.5M30.7 148c3.6-3.5 7.3-7 10.9-10.5l27.6-26.7 36.7-35.5c12.8-12.3 25.6-24.7 38.4-37 10.7-10.4 19.2-18.6 30-29M30.7 148c54.2-48.6 98.4-88.7 152.2-137M30.7 148c22.3-18.7 44.6-37.3 66.9-56 22.3-18.6 44.5-37.2 66.7-55.9 12.5-10.5 16.2-13.7 28.7-24.2M30.7 148 205 11.8M30.7 148 218.3 11.7M30.7 148 222.9 18.3M30.7 148 227.3 25.1M30.7 148 231.5 32M30.7 148 235.4 39.1M30.7 148 239.1 46.3M30.7 148l211.8-94.3M30.7 148l215-86.9M30.7 148l217.9-79.3M30.7 148l220.5-71.7M30.7 148l222.9-63.9M30.7 148l225-56.1M30.7 148l226.8-48.2M30.7 148l228.4-40.3M30.7 148l229.6-32.3M30.7 148l230.6-24.2M30.7 148 262 131.8M30.7 148l231.7-8.1M30.7 148h231.9m-231.9 0c-6.7 0-13.4 0-20.1.1m20.1-.1c-6.7-.2-13.3-.5-20-.7m20 .7c-6.6-.5-13.2-.9-19.8-1.3m19.8 1.3c-6.9-.8-13.7-1.5-20.6-2.3m20.6 2.3c-6.9-1-13.7-2-20.6-3m20.6 3c-6.8-1.3-13.6-2.5-20.4-3.6"/><path class="st3" d="M30.7 148c-6.7-1-13.4-2.2-20-3.6m20 3.6c-6.7-1.5-13.4-3.1-20.1-4.8m20.1 4.8c-6.9-1.9-13.9-3.9-20.8-5.9m20.8 5.9c-7.1-2.2-14.2-4.4-21.2-6.7m21.2 6.7c-7.1-2.5-14.1-5.1-21.2-7.6m21.2 7.6c-7-3.1-14-6-21.1-8.9m21.1 8.9c-6.9-3.3-13.9-6.5-20.9-9.6m20.9 9.6c-7.1-3.4-14.1-6.8-21.1-10.2M30.7 148c-7-3.7-14-7.4-21-11.2m21 11.2c-7-4.1-14-8.2-21-12.4m21 12.4c-7-4.3-14-8.7-20.9-13.1M30.7 148c-7.2-4.9-14.3-9.8-21.4-14.7M30.7 148c-7.3-5.3-14.5-10.5-21.8-15.7M30.7 148c-7.5-5.8-14.1-12.7-21.5-18.5"/><path class="st3" d="M30.7 148c-7.3-5.8-14.4-11.7-21.5-17.7M30.7 148c-7.1-7.2-14.4-14.2-21.8-21m21.8 21c-6.9-7.7-14.2-15.1-21.6-22.4"/><path class="st3" d="M30.7 148c-7.1-7.5-14.2-14.9-21.4-22.3"/><path class="st3" d="M30.7 148c-7.4-7.4-14.5-15.1-21.5-22.8M30.7 148c-7.7-8.9-15.4-17.8-23-26.8m23 26.8c-7.3-9.8-14.7-19.5-22.1-29.2"/><path class="st3" d="M30.7 148c-7.5-9.9-14.9-19.9-22.2-29.9M30.7 148c-7.4-11.1-14.8-22.1-22.2-33.2M30.7 148c-7.3-11.4-14.6-22.9-21.9-34.4M30.7 148c-8.3-14.3-16.6-28.5-24.9-42.8M30.7 148 7 103.6M30.7 148c-7.8-15.8-15.5-31.7-23.2-47.5"/><path class="st3" d="M30.7 148c-9.8-17.9-16-37.5-25-55.8m25 55.8c-7.9-19.7-15.9-39.4-23.8-59m23.8 59c-8.2-20.8-15.8-41.8-23.2-62.9M30.7 148c-8.2-24.5-16.5-48.9-24.5-73.4M30.7 148c-8.9-27.8-15.9-56.2-23.8-84.3M30.7 148c-7.2-29.7-14.7-59.3-22-89m22 89c-6.1-31.2-13-62.2-19.6-93.3"/><path class="st3" d="M30.7 148C24.4 118.8 20 89.3 15.2 59.8 13.8 51.4 12.5 43 11 34.7"/><path class="st3" d="M30.7 148C24 115 20.1 81.6 16.1 48.2c-1.1-9.5-2.3-19-3.6-28.5M30.7 148c-5.8-42-9.5-85.8-13.3-128.4"/><path class="st3" d="M30.7 148c-4.5-42-5.8-85.8-9-128.6"/><path class="st3" d="M30.7 148c-3.2-43.3-3.2-85.8-4.5-129.1"/><path class="st2" d="m28.8 148.8 53.8.3M24.3 148h240.2"/><path class="st0" d="M286.5 6.8S10.1 3.7 6.1 5c-1.5 48.7 0 281.2-.2 282.7 1-.2 280.2 1 280.6.9-.6-1.5.1-266.4 0-281.8zM145.6 261.2c-64 0-115.9-51.9-115.9-115.9S81.6 29.4 145.6 29.4s115.9 51.9 115.9 115.9-51.9 115.9-115.9 115.9z"/><circle cx="60.8" cy="83.2" r="49.2" style="fill:#8bc25c"/><path d="M26.8 85.8c-.8.4-1.7.5-2.8.5-.9 0-1.8-.2-2.6-.5s-1.5-.8-2.1-1.3c-.6-.6-1.1-1.3-1.4-2.1s-.5-1.7-.5-2.7c0-1 .2-1.9.5-2.7s.8-1.5 1.4-2.1c.6-.6 1.3-1 2.1-1.3.8-.3 1.7-.4 2.6-.4.9 0 1.7.1 2.6.5.8.3 1.5.8 2.1 1.3l-2 2c-.3-.4-.6-.7-1.1-.9-.4-.2-.9-.3-1.4-.3-.5 0-1 .1-1.4.3s-.8.5-1.1.8-.6.7-.7 1.2c-.2.5-.3 1-.3 1.5 0 .6.1 1.1.3 1.5.2.5.4.9.7 1.2.3.3.7.6 1.1.8.4.2.9.3 1.4.3.6 0 1.1-.1 1.6-.3.4-.2.8-.5 1.1-.9l2.1 2c-.7.7-1.4 1.2-2.2 1.6zm16.4-6.1c0 1-.2 1.9-.5 2.7-.3.8-.8 1.5-1.4 2.1-.6.6-1.3 1-2.1 1.3-.8.3-1.7.5-2.7.5s-1.9-.2-2.7-.5c-.8-.3-1.5-.8-2.1-1.3-.6-.6-1.1-1.3-1.4-2.1-.3-.8-.5-1.7-.5-2.7 0-1 .2-1.9.5-2.7.3-.8.8-1.5 1.4-2 .6-.6 1.3-1 2.1-1.3.8-.3 1.7-.4 2.7-.4 1 0 1.9.1 2.7.4.8.3 1.5.7 2.1 1.3.6.6 1.1 1.2 1.4 2 .4.8.5 1.7.5 2.7zm-3.2 0c0-.5-.1-1-.3-1.5-.2-.5-.4-.9-.7-1.2-.3-.3-.7-.6-1.1-.8-.4-.1-.9-.2-1.4-.2-.5 0-1 .1-1.4.3-.4.2-.8.4-1.1.8-.3.3-.6.7-.7 1.2-.2.5-.2 1-.2 1.5 0 .6.1 1.1.3 1.5.2.5.4.9.7 1.2.3.3.7.6 1.1.8.4.2.9.3 1.4.3s1-.1 1.4-.3c.4-.2.8-.5 1.1-.8s.6-.7.7-1.2c.2-.5.2-1 .2-1.6zm12-2.9c-.3-.3-.6-.6-1-.8-.4-.2-.8-.3-1.2-.3h-.6c-.2 0-.4.1-.5.2-.2.1-.3.2-.4.4-.1.2-.2.4-.2.6 0 .2 0 .4.1.5.1.1.2.3.4.4l.6.3c.2.1.5.2.8.3.4.1.9.3 1.3.5s.9.4 1.2.7c.4.3.7.6.9 1 .2.4.4.9.4 1.5 0 .7-.1 1.3-.4 1.8-.3.5-.6.9-1.1 1.3s-.9.6-1.5.7c-.6.2-1.2.2-1.8.2-.9 0-1.7-.1-2.6-.5-.8-.3-1.5-.7-2.1-1.3l2-2c.3.4.7.7 1.2.9s1 .4 1.5.4c.2 0 .4 0 .6-.1.2 0 .4-.1.5-.2.2-.1.3-.2.4-.4.1-.2.1-.4.1-.6 0-.2-.1-.4-.2-.6-.1-.2-.3-.3-.5-.4-.2-.1-.5-.3-.8-.4-.3-.1-.7-.2-1.1-.4-.4-.1-.8-.3-1.2-.4-.4-.2-.7-.4-1-.7-.3-.3-.5-.6-.7-1-.2-.4-.3-.9-.3-1.4 0-.7.1-1.3.4-1.8.3-.5.6-.9 1.1-1.2.4-.3 1-.5 1.5-.7.6-.1 1.1-.2 1.7-.2.7 0 1.4.1 2.1.4s1.4.6 1.9 1.1L52 76.8zM64.4 86l-1-2.4h-4.8l-.9 2.4h-3.2l5.2-12.4h2.9L67.8 86h-3.4zm-3.3-9.1-1.6 4.3h3.1l-1.5-4.3zm17.3.5c0 .7-.1 1.3-.4 1.8-.3.5-.6.9-1.1 1.2-.4.3-1 .5-1.6.7-.6.1-1.2.2-1.8.2H72V86h-3V73.6h4.6c.7 0 1.3.1 1.9.2.6.1 1.1.3 1.5.6.4.3.8.7 1 1.2.3.5.4 1.1.4 1.8zm-3 0c0-.3-.1-.5-.2-.7-.1-.2-.3-.3-.5-.4-.2-.1-.4-.2-.7-.2h-2V79h1.3c.3 0 .5 0 .8-.1.3 0 .5-.1.7-.2.2-.1.4-.3.5-.5 0-.3.1-.5.1-.8zM87.1 86l-2.7-4.9h-1V86h-2.9V73.6h4.7c.6 0 1.2.1 1.7.2.6.1 1.1.3 1.5.6.4.3.8.7 1.1 1.1.3.5.4 1.1.4 1.8 0 .8-.2 1.5-.7 2.1-.5.6-1.1 1-1.9 1.2l3.2 5.3-3.4.1zm-.1-8.6c0-.3-.1-.5-.2-.7-.1-.2-.3-.3-.5-.4-.2-.1-.4-.2-.6-.2h-2.3V79h1.4c.2 0 .5 0 .8-.1.3 0 .5-.1.7-.2.2-.1.4-.3.5-.4.1-.3.2-.6.2-.9zm18.2 2.3c0 1-.2 1.9-.5 2.7-.3.8-.8 1.5-1.4 2.1-.6.6-1.3 1-2.1 1.3-.8.3-1.7.5-2.7.5-1 0-1.9-.2-2.7-.5-.8-.3-1.5-.8-2.1-1.3-.6-.6-1.1-1.3-1.4-2.1-.3-.8-.5-1.7-.5-2.7 0-1 .2-1.9.5-2.7.3-.8.8-1.5 1.4-2 .6-.6 1.3-1 2.1-1.3.8-.3 1.7-.4 2.7-.4 1 0 1.9.1 2.7.4.8.3 1.5.7 2.1 1.3.6.6 1.1 1.2 1.4 2 .3.8.5 1.7.5 2.7zm-3.2 0c0-.5-.1-1-.3-1.5-.2-.5-.4-.9-.7-1.2-.3-.3-.7-.6-1.1-.8-.4-.2-.9-.3-1.4-.3-.5 0-1 .1-1.4.3-.4.2-.8.4-1.1.8-.3.3-.6.7-.7 1.2-.2.5-.2 1-.2 1.5 0 .6.1 1.1.3 1.5.2.5.4.9.7 1.2.3.3.7.6 1.1.8.4.2.9.3 1.4.3s1-.1 1.4-.3c.4-.2.8-.5 1.1-.8.3-.3.6-.7.7-1.2.1-.4.2-.9.2-1.5zM62.5 101c0 1-.2 1.9-.5 2.7-.3.8-.8 1.5-1.4 2.1-.6.6-1.3 1-2.1 1.3s-1.7.5-2.7.5c-1 0-1.9-.2-2.7-.5-.8-.3-1.5-.8-2.1-1.3-.6-.6-1.1-1.3-1.4-2.1-.3-.8-.5-1.7-.5-2.7 0-1 .2-1.9.5-2.7.3-.8.8-1.5 1.4-2 .6-.6 1.3-1 2.1-1.3.8-.3 1.7-.4 2.7-.4 1 0 1.9.1 2.7.4.8.3 1.5.7 2.1 1.3.6.6 1.1 1.2 1.4 2 .4.8.5 1.7.5 2.7zm-3.2 0c0-.5-.1-1-.3-1.5-.2-.5-.4-.9-.7-1.2s-.7-.6-1.1-.8-.9-.3-1.4-.3c-.5 0-1 .1-1.4.3-.4.2-.8.4-1.1.8-.3.3-.6.7-.7 1.2-.2.5-.2 1-.2 1.5 0 .6.1 1.1.3 1.5.2.5.4.9.7 1.2.3.3.7.6 1.1.8.4.2.9.3 1.4.3s1-.1 1.4-.3.8-.5 1.1-.8.6-.7.7-1.2c.1-.4.2-1 .2-1.5zm10.9 1v5.3h-3V102l-4.7-7.1h3.6l2.6 4.6 2.6-4.6H75l-4.8 7.1z" style="fill:#004b67"/><path style="fill:none;stroke:#004b67;stroke-width:7;stroke-miterlimit:10" d="M3.3 3.7h286.2v286.2H3.3z"/></svg>