<?xml version="1.0" encoding="utf-8"?><svg viewBox="0 0 292.5 292.7" xmlns="http://www.w3.org/2000/svg" xmlns:xlink="http://www.w3.org/1999/xlink"><style>:root>svg{display:none}:root>svg:target{display:block}</style><svg version="1.1" id="logo-svg" x="0" y="0" viewBox="0 0 292.5 292.7" xml:space="preserve" xmlns="http://www.w3.org/2000/svg"><style>.ast0{fill:#fff}.ast1,.ast2,.ast3{fill:#1c75bc;stroke:#8bc25c;stroke-width:1.7972;stroke-miterlimit:10}.ast2,.ast3{fill:none}.ast3{stroke:#004b67}.ast4{display:none}.ast5{display:inline;fill:none;stroke:#8bc25c;stroke-width:1.7972;stroke-miterlimit:10}.ast6{fill:#8bc25c}.ast7{fill:#004b67}.ast8{fill:none;stroke:#004b67;stroke-width:7;stroke-miterlimit:10}</style><path class="ast0" d="M7.5 8.2H283v275.5H7.5z"/><path class="ast1" d="M30.2 148c.3 38.5.3 78.5 0 117.7M35.2 276.8c-.5-15.8-1.3-31.4-2.1-47.1l1.6 46.8c.2.1.3.2.5.3z"/><path class="ast1" d="M33.1 229.7L30.2 148c.2 27.4 1.5 54.5 2.9 81.7zM39.4 279.3c-2.9-43.9-5.7-87.4-9.2-131.3l9.2 131.3zM39.4 235.1c-2.8-29.2-5.7-58.3-9.2-87.1l9.2 87.1zM44.2 281.1l-4.8-46c1.5 15.3 3 30.7 4.5 46.1.1 0 .2-.1.3-.1zM48.9 281.1L30.2 148c6.3 44.7 12.3 88 18.3 133 .2 0 .3.1.4.1zM54 281.7C46.1 237 38 192.2 30.2 148l23.6 133.7h.2z"/><path class="ast1" d="M58.2 283.5c.3 0 .6.1.8.2L30.2 148c6.6 41 17.8 79.7 25.4 122.2.8 4.5 1.7 8.9 2.6 13.3z"/><path class="ast2" d="M30.2 148L64 283.4M30.2 148l39.6 138M30.2 148l45.4 139.7M30.2 148l50.2 138M30.2 148L86 286M30.2 148L92 286.8M30.2 148l67.6 138.6M30.2 148l73.4 138M30.2 148l79.9 138.3M30.2 148l86.9 139.1M30.2 148l93.1 138M30.2 148l100.2 137.9M30.2 148l107.5 137.6M30.2 148l114.2 136.1M30.2 148L153 284.3M30.2 148l133.7 138.4M30.2 148l142.3 137.4M30.2 148l153.2 137.9M30.2 148l158.5 133M30.2 148l166.4 130M30.2 148l187.6 136.3M30.2 148l192.3 129.7M30.2 148l196.7 122.9M30.2 148l200.9 116M30.2 148L235 256.9M30.2 148l208.5 101.7M30.2 148l211.9 94.3M30.2 148l215 86.9M30.2 148l218 79.3M30.2 148l220.6 71.7M30.2 148l223 63.9M30.2 148l225.1 56.1M30.2 148l226.9 48.2M30.2 148l228.4 40.3M30.2 148l229.7 32.3M30.2 148l230.7 24.2M30.2 148l231.4 16.2M30.2 148l231.8 8.1M30.2 148h231.9"/><path class="ast1" d="M21.8 148h8.4-8.4zM21.8 148.3l8.4-.3-8.4.3z"/><path class="ast1" d="M21.7 148.7c2.8-.2 5.7-.5 8.5-.7l-8.5.6v.1zM21.7 148.9c2.8-.3 5.7-.6 8.5-.9l-8.5.9zM21.6 149.2l8.6-1.2c-2.8.4-5.7.8-8.6 1.2zM21.6 149.5c2.9-.5 5.8-1 8.6-1.5l-8.6 1.5z"/><path class="ast1" d="M21.5 150.3c2.9-.7 5.8-1.5 8.7-2.3l-8.7 1.9c0 .1 0 .1-.1.2 0 .1 0 .2.1.2z"/><path class="ast1" d="M21.4 150.2c2.9-.7 5.9-1.4 8.8-2.2l-8.8 2.2zM21.5 150.5c2.9-.8 5.8-1.6 8.7-2.5l-8.7 2.5zM21.6 150.8v.1c2.9-1 5.7-1.9 8.6-2.9l-8.6 2.8z"/><path class="ast1" d="M21.6 150.9v.2l8.5-3.1c-2.7 1-5.6 2-8.5 2.9zM21.7 151.4c0 .1 0 .1 0 0 2.8-1.1 5.7-2.2 8.5-3.4l-8.5 3.4z"/><path class="ast1" d="M21.8 151.6v.1l8.4-3.7c-2.8 1.1-5.6 2.3-8.4 3.6z"/><path class="ast1" d="M30.2 148l-8.4 4.1c2.8-1.4 5.6-2.7 8.4-4.1z"/><path class="ast1" d="M30.2 148c-2.8 1.4-5.6 2.9-8.4 4.4v.1l8.4-4.5zM21.8 152.9l8.4-4.9c-2.8 1.6-5.6 3.2-8.4 4.9 0-.1 0-.1 0 0zM21.8 153.3l8.4-5.3-8.4 5.1v.2z"/><path class="ast1" d="M21.7 153.7l8.5-5.7c-2.8 1.8-5.7 3.6-8.5 5.5v.2zM21.6 154.3l8.6-6.3c-2.9 2-5.7 4.1-8.6 6.1v.2z"/><path class="ast1" d="M21.4 154.9c2.9-2.3 5.9-4.6 8.8-6.9l-8.8 6.9z"/><path class="ast1" d="M21 155.7c3.1-2.6 6.1-5.2 9.2-7.8l-9.2 7.8zM30.2 148l-9.3 8.4v.1c3.2-2.8 6.3-5.7 9.3-8.5zM30.2 148c-2.7 2.6-5.3 5.2-8 7.7"/><path class="ast1" d="M21 157.5l9.2-9.5c-3.1 3-6.2 6-9.2 9.1v.4zM30.2 148c-2.3 2.5-4.6 5.1-6.9 7.6M20.9 159.1l9.3-11.1c-3.1 3.6-6.2 7.2-9.3 10.7v.2c-.1.1-.1.2 0 .2zM30.2 148c-3.1 3.9-6.2 7.9-9.2 11.8l9.2-11.8zM21 160.7c3.1-4.2 6.2-8.5 9.2-12.7L21 160.7zM20.9 161.8c0 .2.1.4.1.6 3.1-4.8 6.2-9.5 9.2-14.4l-9.3 13.8z"/><path class="ast1" d="M21 162.5v.2l9.2-14.7c-3.1 4.8-6.1 9.7-9.2 14.5zM20.8 164.7c3.1-5.5 6.3-11.1 9.4-16.7l-9.3 16.1c0 .2-.1.3-.1.5v.1zM30.2 148c-2.4 4.6-4.9 9.2-7.3 13.8M30.2 148c-2.1 4.7-4.7 9.7-7.4 15.1M30.2 148c-2.1 4.7-4.7 9.7-7.3 16.4M30.2 148c-2.1 6-5.9 12.2-7.3 18.1M30.2 148c-2.1 6-4.7 13.5-7.3 20.1M30.2 148c-3.4 7.2-4.7 14.7-7.4 22.6M30.2 148c-3.4 8.5-4.7 17.2-7.3 25.6M30.2 148c-2.1 9.7-4.7 21-7.8 31.1M30.2 148c-2.1 12.2-4.7 26-8.1 38M30.2 148c-3.4 14.7-4.7 31-8.1 46.2M21.7 208.6l-1.2 7.8v.1l1.2-7.9zM30.2 148c-3.4 18.5-5.9 36-7.8 55.2M22.3 223.2l-.9 8.9c0 .1.1.3.1.4.3-3.1.6-6.2.8-9.3zM30.2 148c-2.1 23.5-5.9 46-7.4 69.9M30.2 148c-3.4 31-2.1 62.2-6.6 94M26.8 244.8l3.4-96.7c-1.5 31.7-2.6 64.1-3.6 96.4.1.1.2.2.2.3z"/><g><path class="ast3" d="M30.7 148c.5-43.3.5-85.8.2-129.1M30.7 148c-.7-43.3 5.5-85.8 5.4-129.6M30.7 148c1.7-43.3 5.5-85.8 9-130M30.7 148C32.4 104.7 41.2 61 44 17.7M30.7 148c4.5-33.6 9-67.2 14-100.8 1.4-9.7 2.9-19.3 4.4-29M30.7 148C36.9 114.4 42 80.5 47.9 46.9c1.7-9.5 3.4-19 5.3-28.5M30.7 148C39.9 104.7 50 62.2 58.5 18.8M30.7 148c9.2-43.3 23-85.8 32.6-129.4M30.7 148c14.2-47.4 24.5-88.4 39-136.1M30.7 148c15.4-48.6 30.2-91.7 45-138.7M30.7 148C46.1 99.4 61.8 64.9 78.6 16.4"/><path class="ast3" d="M30.7 148c1.6-7.4 5.4-13.6 7.9-21.1C54.8 85.6 69.4 59.4 85.8 18"/><path class="ast3" d="M30.7 148c2.9-3.6 2.9-7.4 4.2-11.1C56.2 91.9 70 59.1 90 14.7M30.7 148C53.6 99.4 73.2 63 95.9 14.2"/><path class="ast3" d="M30.7 148c4.2-8.6 7.9-17.3 12.9-26.1C67.3 83.1 76.5 55.2 100 16.4M30.7 148c26.7-48.6 52.8-89.5 79.6-137.8M30.7 148c29.2-48.6 52-82.6 82.2-131.6M30.7 148c15.4-22.4 65.1-96 82.5-122.5"/><path class="ast3" d="M30.7 148c4.2-8.6 12.9-14.9 16.7-23.6 3.7-6.3 10-12.5 15-18.7 26.2-35 32.1-45.8 56.6-79M30.7 148c37.9-48.6 56.2-71.5 93.8-120.1M30.7 148c22.2-24.1 90-107.6 110.3-131.6M30.7 148C73.6 99.4 110.4 59.5 154 11"/><path class="ast3" d="M30.7 148c9.1-11.1 20.4-21.1 30.4-32.4 37.5-38.8 65.3-64.5 97.6-101.5M30.7 148c3.6-3.5 7.3-7 10.9-10.5l27.6-26.7 36.7-35.5c12.8-12.3 25.6-24.7 38.4-37 10.7-10.4 19.2-18.6 30-29M30.7 148c54.2-48.6 98.4-88.7 152.2-137M30.7 148c22.3-18.7 44.6-37.3 66.9-56 22.3-18.6 44.5-37.2 66.7-55.9 12.5-10.5 16.2-13.7 28.7-24.2M30.7 148L205 11.8M30.7 148L218.3 11.7M30.7 148L222.9 18.3M30.7 148L227.3 25.1M30.7 148L231.5 32M30.7 148L235.4 39.1M30.7 148L239.1 46.3M30.7 148l211.8-94.3M30.7 148l215-86.9M30.7 148l217.9-79.3M30.7 148l220.5-71.7M30.7 148l222.9-63.9M30.7 148l225-56.1M30.7 148l226.8-48.2M30.7 148l228.4-40.3M30.7 148l229.6-32.3M30.7 148l230.6-24.2M30.7 148L262 131.8M30.7 148l231.7-8.1M30.7 148h231.9M30.7 148c-6.7 0-13.4 0-20.1.1M30.7 148c-6.7-.2-13.3-.5-20-.7M30.7 148c-6.6-.5-13.2-.9-19.8-1.3M30.7 148c-6.9-.8-13.7-1.5-20.6-2.3M30.7 148c-6.9-1-13.7-2-20.6-3M30.7 148c-6.8-1.3-13.6-2.5-20.4-3.6M30.7 148c-6.7-1-13.4-2.2-20-3.6M30.7 148c-6.7-1.5-13.4-3.1-20.1-4.8M30.7 148c-6.9-1.9-13.9-3.9-20.8-5.9M30.7 148c-7.1-2.2-14.2-4.4-21.2-6.7M30.7 148c-7.1-2.5-14.1-5.1-21.2-7.6M30.7 148c-7-3.1-14-6-21.1-8.9M30.7 148c-6.9-3.3-13.9-6.5-20.9-9.6M30.7 148c-7.1-3.4-14.1-6.8-21.1-10.2M30.7 148c-7-3.7-14-7.4-21-11.2M30.7 148c-7-4.1-14-8.2-21-12.4M30.7 148c-7-4.3-14-8.7-20.9-13.1M30.7 148c-7.2-4.9-14.3-9.8-21.4-14.7M30.7 148c-7.3-5.3-14.5-10.5-21.8-15.7M30.7 148c-7.5-5.8-14.1-12.7-21.5-18.5M30.7 148c-7.3-5.8-14.4-11.7-21.5-17.7M30.7 148c-7.1-7.2-14.4-14.2-21.8-21M30.7 148c-6.9-7.7-14.2-15.1-21.6-22.4M30.7 148c-7.1-7.5-14.2-14.9-21.4-22.3M30.7 148c-7.4-7.4-14.5-15.1-21.5-22.8M30.7 148c-7.7-8.9-15.4-17.8-23-26.8M30.7 148c-7.3-9.8-14.7-19.5-22.1-29.2M30.7 148c-7.5-9.9-14.9-19.9-22.2-29.9M30.7 148c-7.4-11.1-14.8-22.1-22.2-33.2M30.7 148c-7.3-11.4-14.6-22.9-21.9-34.4M30.7 148c-8.3-14.3-16.6-28.5-24.9-42.8M30.7 148L7 103.6M30.7 148c-7.8-15.8-15.5-31.7-23.2-47.5M30.7 148c-9.8-17.9-16-37.5-25-55.8M30.7 148c-7.9-19.7-15.9-39.4-23.8-59M30.7 148c-8.2-20.8-15.8-41.8-23.2-62.9M30.7 148c-8.2-24.5-16.5-48.9-24.5-73.4M30.7 148c-8.9-27.8-15.9-56.2-23.8-84.3M30.7 148c-7.2-29.7-14.7-59.3-22-89M30.7 148c-6.1-31.2-13-62.2-19.6-93.3"/><path class="ast3" d="M30.7 148C24.4 118.8 20 89.3 15.2 59.8 13.8 51.4 12.5 43 11 34.7"/><path class="ast3" d="M30.7 148C24 115 20.1 81.6 16.1 48.2c-1.1-9.5-2.3-19-3.6-28.5M30.7 148c-5.8-42-9.5-85.8-13.3-128.4M30.7 148c-4.5-42-5.8-85.8-9-128.6M30.7 148c-3.2-43.3-3.2-85.8-4.5-129.1"/></g><g class="ast4"><path class="ast5" d="M30.7 148c.4 45.2.4 90.2 0 134.7M30.7 148c.4 45.2 2.9 88.9 4.6 133.8M30.7 148c2.9 45.2 6.7 90.2 9.5 135.6M30.7 148c4.2 45.2 10.4 90.2 14.3 135.7M30.7 148c1.3 9.3 17 120.7 18.9 134.7M30.7 148c7.9 45.2 16.7 91.4 24 136M30.7 148c10.4 45.2 20.4 90.2 28.8 135.1M30.7 148c11.7 45.2 22.9 91.4 34.1 136.9M30.7 148c12.9 45.2 25.4 90.2 38.7 134.8M30.7 148l44.1 135.9M30.7 148l49.5 136.2M30.7 148s41.7 102.7 54.4 134.6M30.7 148c9.8 15.6 2.4 7.1 60.5 135.9M39.4 166L97 284M30.7 148c17.9 31 61.9 119.5 73 137.3M30.7 148c5.8 10.1 70.7 122.4 79.4 137.5M30.7 148c25.3 40.7 58.4 93.5 87.1 139.4M30.7 148c11.6 16.7 69.5 103.9 92.2 136.7M30.7 148c28.8 40.1 83.4 114.3 100.1 137.8M30.7 148c31.4 40.1 72.2 92.2 108 138.2M30.7 148c38.4 45.9 77.2 91 115.2 137.2M30.7 148c35.8 38.6 82.2 92.2 123.8 137.5M30.7 148c7.3 6.9 121.9 126.2 121.9 126.2M30.7 148c14.4 12.8 139 135.1 144 139M30.7 148c27.4 24.5 144 129 154.7 139.3M30.7 148c38.7 32 149.5 125.5 161.5 135.5M30.7 148c45.3 35.8 114.7 88.4 172.6 134.9M30.7 148l187.6 136.3M30.7 148l192.2 129.7M30.7 148l196.6 122.9M30.7 148l200.8 116M30.7 148l204.7 108.9M30.7 148l208.4 101.7M30.7 148l211.8 94.3M30.7 148l215 86.9M30.7 148l217.9 79.3M30.7 148l220.5 71.7M30.7 148l222.9 63.9M30.7 148l225 56.1M30.7 148l226.8 48.2M30.7 148l228.4 40.3M30.7 148l229.6 32.3M30.7 148l230.6 24.2M30.7 148L262 164.2M30.7 148l231.7 8.1M30.7 148h231.9M30.7 148c-9.6 0-19.2.1-28.8.1M30.7 148c-9.8.4-19.7.7-29.5 1M30.7 148c-9.8.4-19.6 1.1-29.3 1.8M30.7 148c-9.4.8-18.8 1.7-28.3 2.8M30.7 148c-9.4 1.5-18.9 2.9-28.4 4.2M30.7 148c-9.3 1.8-18.6 3.6-28 5.2M30.7 148c-9.3 1.9-18.7 3.8-28 5.8M30.7 148c-9.3 2.6-18.7 4.9-28.1 7.2M30.7 148c-9.5 2.6-18.9 5.3-28.4 8.1M30.7 148c-10 3.2-19.9 6.5-29.9 9.7M30.7 148c-9.7 3.8-19.5 7.4-29.4 10.9M30.7 148c-9.7 3.9-19.4 7.8-29.1 11.8M30.7 148c-9.6 4.4-19.2 8.8-28.8 13M30.7 148c-9.2 5.2-18.6 10-28.1 14.5M30.7 148c-9.7 4.4-19.1 9.3-28.4 14.4M30.7 148c-9.5 5.1-18.9 10.4-28.2 15.9M30.7 148c-10.1 5.7-20 11.8-29.8 17.9M30.7 148c-9.2 5.7-18 12-26.9 18M30.7 148c-8.9 6.1-17.7 12.2-26.5 18.5M30.7 148c-8.7 6.6-17.3 13.3-25.8 20M30.7 148c-9.4 5.8-17.1 13.8-25.1 21.3M30.7 148C22 155.2 13.5 162.6 5 170.1M30.7 148c-8.4 7.9-16.8 15.9-25.1 23.9M30.7 148L5.3 174.3M30.7 148L5.5 175.6M30.7 148c-8.4 10-17.1 19.8-25.7 29.7M30.7 148c-8.5 10.3-16.7 20.7-24.9 31.2M30.7 148c-8.2 10.9-16.3 22-24.3 33.2M30.7 148c-8.2 11.7-16.2 23.5-24.2 35.4M30.7 148c-8.1 13.1-16.3 26.1-24.4 39.1M30.7 148c-9.6 16.2-19.1 32.5-28.5 48.8M30.7 148c-9.2 18.2-19.5 35.9-29 54M30.7 148c-9.6 19.8-19.3 39.5-28.9 59.3M30.7 148c-9.7 21.3-18.4 43-28.3 64.2M30.7 148c-11.5 22.6-20 47.2-28.9 70.9M30.7 148c-10.4 26-19 52.7-28.4 79.1M30.7 148c-10.4 28.3-18.8 57.3-27.9 86.1M30.7 148C21 181.6 11.4 215.1 1.8 248.7M30.7 148c-10.8 38.9-17.1 78.9-29 116.3M30.7 148c-9.6 45.2-19.6 88.9-28.4 133.4M30.7 148c-8.4 43.9-15.9 88.9-23.5 133.5M30.7 148c-5.9 45.2-12.1 88.9-18.8 133.8M30.7 148c-5.9 45.2-8.4 88.9-14.1 133.9M30.7 148c-3.3 45.2-5.9 88.9-9.4 133.9M30.7 148c-2.1 45.2-3.3 90.2-4.7 134.6"/></g><path class="ast2" d="M28.8 148.8l53.8.3M24.3 148h240.2"/><path class="ast0" d="M286.5 6.8S10.1 3.7 6.1 5c-1.5 48.7 0 281.2-.2 282.7 1-.2 280.2 1 280.6.9-.6-1.5.1-266.4 0-281.8zM145.6 261.2c-64 0-115.9-51.9-115.9-115.9S81.6 29.4 145.6 29.4s115.9 51.9 115.9 115.9-51.9 115.9-115.9 115.9z"/><circle class="ast6" cx="60.8" cy="83.2" r="49.2"/><g><path class="ast7" d="M26.8 85.8c-.8.4-1.7.5-2.8.5-.9 0-1.8-.2-2.6-.5s-1.5-.8-2.1-1.3c-.6-.6-1.1-1.3-1.4-2.1s-.5-1.7-.5-2.7c0-1 .2-1.9.5-2.7s.8-1.5 1.4-2.1c.6-.6 1.3-1 2.1-1.3.8-.3 1.7-.4 2.6-.4.9 0 1.7.1 2.6.5.8.3 1.5.8 2.1 1.3l-2 2c-.3-.4-.6-.7-1.1-.9-.4-.2-.9-.3-1.4-.3-.5 0-1 .1-1.4.3s-.8.5-1.1.8-.6.7-.7 1.2c-.2.5-.3 1-.3 1.5 0 .6.1 1.1.3 1.5.2.5.4.9.7 1.2.3.3.7.6 1.1.8.4.2.9.3 1.4.3.6 0 1.1-.1 1.6-.3.4-.2.8-.5 1.1-.9l2.1 2c-.7.7-1.4 1.2-2.2 1.6zM43.2 79.7c0 1-.2 1.9-.5 2.7-.3.8-.8 1.5-1.4 2.1-.6.6-1.3 1-2.1 1.3-.8.3-1.7.5-2.7.5s-1.9-.2-2.7-.5c-.8-.3-1.5-.8-2.1-1.3-.6-.6-1.1-1.3-1.4-2.1-.3-.8-.5-1.7-.5-2.7 0-1 .2-1.9.5-2.7.3-.8.8-1.5 1.4-2 .6-.6 1.3-1 2.1-1.3.8-.3 1.7-.4 2.7-.4 1 0 1.9.1 2.7.4.8.3 1.5.7 2.1 1.3.6.6 1.1 1.2 1.4 2 .4.8.5 1.7.5 2.7zm-3.2 0c0-.5-.1-1-.3-1.5-.2-.5-.4-.9-.7-1.2-.3-.3-.7-.6-1.1-.8-.4-.1-.9-.2-1.4-.2-.5 0-1 .1-1.4.3-.4.2-.8.4-1.1.8-.3.3-.6.7-.7 1.2-.2.5-.2 1-.2 1.5 0 .6.1 1.1.3 1.5.2.5.4.9.7 1.2.3.3.7.6 1.1.8.4.2.9.3 1.4.3s1-.1 1.4-.3c.4-.2.8-.5 1.1-.8s.6-.7.7-1.2c.2-.5.2-1 .2-1.6zM52 76.8c-.3-.3-.6-.6-1-.8-.4-.2-.8-.3-1.2-.3h-.6c-.2 0-.4.1-.5.2-.2.1-.3.2-.4.4-.1.2-.2.4-.2.6 0 .2 0 .4.1.5.1.1.2.3.4.4l.6.3c.2.1.5.2.8.3.4.1.9.3 1.3.5s.9.4 1.2.7c.4.3.7.6.9 1 .2.4.4.9.4 1.5 0 .7-.1 1.3-.4 1.8-.3.5-.6.9-1.1 1.3s-.9.6-1.5.7c-.6.2-1.2.2-1.8.2-.9 0-1.7-.1-2.6-.5-.8-.3-1.5-.7-2.1-1.3l2-2c.3.4.7.7 1.2.9s1 .4 1.5.4c.2 0 .4 0 .6-.1.2 0 .4-.1.5-.2.2-.1.3-.2.4-.4.1-.2.1-.4.1-.6 0-.2-.1-.4-.2-.6-.1-.2-.3-.3-.5-.4-.2-.1-.5-.3-.8-.4-.3-.1-.7-.2-1.1-.4-.4-.1-.8-.3-1.2-.4-.4-.2-.7-.4-1-.7-.3-.3-.5-.6-.7-1-.2-.4-.3-.9-.3-1.4 0-.7.1-1.3.4-1.8.3-.5.6-.9 1.1-1.2.4-.3 1-.5 1.5-.7.6-.1 1.1-.2 1.7-.2.7 0 1.4.1 2.1.4s1.4.6 1.9 1.1L52 76.8zM64.4 86l-1-2.4h-4.8l-.9 2.4h-3.2l5.2-12.4h2.9L67.8 86h-3.4zm-3.3-9.1l-1.6 4.3h3.1l-1.5-4.3zM78.4 77.4c0 .7-.1 1.3-.4 1.8-.3.5-.6.9-1.1 1.2-.4.3-1 .5-1.6.7-.6.1-1.2.2-1.8.2H72V86h-3V73.6h4.6c.7 0 1.3.1 1.9.2.6.1 1.1.3 1.5.6.4.3.8.7 1 1.2.3.5.4 1.1.4 1.8zm-3 0c0-.3-.1-.5-.2-.7-.1-.2-.3-.3-.5-.4-.2-.1-.4-.2-.7-.2h-2V79h1.3c.3 0 .5 0 .8-.1.3 0 .5-.1.7-.2.2-.1.4-.3.5-.5 0-.3.1-.5.1-.8zM87.1 86l-2.7-4.9h-1V86h-2.9V73.6h4.7c.6 0 1.2.1 1.7.2.6.1 1.1.3 1.5.6.4.3.8.7 1.1 1.1.3.5.4 1.1.4 1.8 0 .8-.2 1.5-.7 2.1-.5.6-1.1 1-1.9 1.2l3.2 5.3-3.4.1zm-.1-8.6c0-.3-.1-.5-.2-.7-.1-.2-.3-.3-.5-.4-.2-.1-.4-.2-.6-.2h-2.3V79h1.4c.2 0 .5 0 .8-.1.3 0 .5-.1.7-.2.2-.1.4-.3.5-.4.1-.3.2-.6.2-.9zM105.2 79.7c0 1-.2 1.9-.5 2.7-.3.8-.8 1.5-1.4 2.1-.6.6-1.3 1-2.1 1.3-.8.3-1.7.5-2.7.5-1 0-1.9-.2-2.7-.5-.8-.3-1.5-.8-2.1-1.3-.6-.6-1.1-1.3-1.4-2.1-.3-.8-.5-1.7-.5-2.7 0-1 .2-1.9.5-2.7.3-.8.8-1.5 1.4-2 .6-.6 1.3-1 2.1-1.3.8-.3 1.7-.4 2.7-.4 1 0 1.9.1 2.7.4.8.3 1.5.7 2.1 1.3.6.6 1.1 1.2 1.4 2 .3.8.5 1.7.5 2.7zm-3.2 0c0-.5-.1-1-.3-1.5-.2-.5-.4-.9-.7-1.2-.3-.3-.7-.6-1.1-.8-.4-.2-.9-.3-1.4-.3-.5 0-1 .1-1.4.3-.4.2-.8.4-1.1.8-.3.3-.6.7-.7 1.2-.2.5-.2 1-.2 1.5 0 .6.1 1.1.3 1.5.2.5.4.9.7 1.2.3.3.7.6 1.1.8.4.2.9.3 1.4.3s1-.1 1.4-.3c.4-.2.8-.5 1.1-.8.3-.3.6-.7.7-1.2.1-.4.2-.9.2-1.5zM62.5 101c0 1-.2 1.9-.5 2.7-.3.8-.8 1.5-1.4 2.1-.6.6-1.3 1-2.1 1.3s-1.7.5-2.7.5c-1 0-1.9-.2-2.7-.5-.8-.3-1.5-.8-2.1-1.3-.6-.6-1.1-1.3-1.4-2.1-.3-.8-.5-1.7-.5-2.7 0-1 .2-1.9.5-2.7.3-.8.8-1.5 1.4-2 .6-.6 1.3-1 2.1-1.3.8-.3 1.7-.4 2.7-.4 1 0 1.9.1 2.7.4.8.3 1.5.7 2.1 1.3.6.6 1.1 1.2 1.4 2 .4.8.5 1.7.5 2.7zm-3.2 0c0-.5-.1-1-.3-1.5-.2-.5-.4-.9-.7-1.2s-.7-.6-1.1-.8-.9-.3-1.4-.3c-.5 0-1 .1-1.4.3-.4.2-.8.4-1.1.8-.3.3-.6.7-.7 1.2-.2.5-.2 1-.2 1.5 0 .6.1 1.1.3 1.5.2.5.4.9.7 1.2.3.3.7.6 1.1.8.4.2.9.3 1.4.3s1-.1 1.4-.3.8-.5 1.1-.8.6-.7.7-1.2c.1-.4.2-1 .2-1.5zM70.2 102v5.3h-3V102l-4.7-7.1h3.6l2.6 4.6 2.6-4.6H75l-4.8 7.1z"/></g><path class="ast8" d="M3.3 3.7h286.2v286.2H3.3z"/></svg><svg viewBox="0 0 26 26" id="telegram" xmlns="http://www.w3.org/2000/svg"><path fill-rule="evenodd" clip-rule="evenodd" d="M26 13c0 7.18-5.82 13-13 13S0 20.18 0 13 5.82 0 13 0s13 5.82 13 13zM13.466 9.597c-1.264.526-3.792 1.614-7.581 3.265-.616.245-.938.485-.968.719-.05.396.447.552 1.12.763l.285.091c.664.216 1.557.468 2.02.478.422.009.892-.165 1.411-.52 3.54-2.39 5.368-3.599 5.483-3.625.081-.018.194-.042.27.026.076.067.068.195.06.23-.05.21-1.993 2.017-3 2.953a30.38 30.38 0 00-.582.546c-.102.105-.206.206-.306.302-.617.594-1.079 1.04.026 1.768.531.35.956.64 1.38.928.462.315.924.63 1.521 1.021.152.1.297.203.44.304.538.384 1.022.729 1.62.675.347-.033.706-.359.888-1.333.43-2.303 1.277-7.29 1.474-9.347a2.29 2.29 0 00-.022-.511.548.548 0 00-.186-.352c-.155-.127-.396-.154-.504-.152-.489.009-1.238.27-4.85 1.771z"/></svg></svg>