<?xml version="1.0" encoding="UTF-8"?><!DOCTYPE svg PUBLIC "-//W3C//DTD SVG 1.1//EN" "http://www.w3.org/Graphics/SVG/1.1/DTD/svg11.dtd"><svg viewBox="0 0 630 800" xmlns="http://www.w3.org/2000/svg" xmlns:xlink="http://www.w3.org/1999/xlink"><style>:root>svg{display:none}:root>svg:target{display:block}</style><svg viewBox="0 0 630 800" id="cook" xmlns="http://www.w3.org/2000/svg"><path d="M515.09 56.84c-23.44-52.5-194.69-90-280.81 35.42-54.43 79.26-44.46 190.04-44.46 190.04l25.085 87.04h-7.82s15.625 105.625 123.75 160.625l151.875-3.125c100-64.375 111.685-136.395 116.525-153.685l.635-.32 11.465-93.605C626.125 67.355 515.09 56.84 515.09 56.84"/><path d="M203.645 677.66s-21.25-59.06-23.435-65c-2.19-5.935-3.75-5.31-11.25-5.31s-20.935 10.935-34.375 21.56c-13.44 10.625-16.25 28.44-16.25 28.44s7.81 20.31 11.875 28.125c4.06 7.81 18.125 57.81 21.25 65 3.125 7.185 15.31 19.06 24.06 22.81 8.75 3.75 21.995 1.335 21.995 1.335 29.175-10.665 87.645-98.42 87.645-98.42l1.195 8.84c5.845 42.665 13.21 92.885 17.205 106.41h199.37c3.02-10.23 7.975-41.45 12.735-74.52l2.025-14.255L538.1 796.5h52.735s-19.07-163.835-23.745-199.19c-4.675-35.35-31.235-51.625-48.63-56.11-17.395-4.485-89.575-27.265-89.575-27.265l-51.28 4.51s-56.09 19.95-70.675 22.755c-14.59 2.81-34.79 13.465-42.08 29.18l-61.205 107.28"/><path d="M429.275 515.16l-1.46-12.445 1.07-13.135-50.215 2.99v10.145l-1.065 19.97-87.07 22.635s29.535 35.665 112.66 35.665c95.18 0 120.685-37.79 120.685-37.79l-94.605-28.035"/><path d="M378.8 483.375h49.145l.41 23.915s-3.635 19.15-38.35 15.395c-11.56-1.25-12.775-11.03-12.775-11.03l1.57-28.28M247.505 119.34c120.83-162.5 347.5-29.165 363.33 70-14.165-112.5-95.745-132.5-95.745-132.5-23.44-52.5-194.69-90-280.81 35.42-54.43 79.26-44.46 190.04-44.46 190.04s14.77 7.565 14.35 7.875c-5-50 9.08-124.77 43.335-170.835"/><path d="M233.34 290.895s-10.1-19.595-29.095-13.655c-39.63 12.385-26.92 98.28 38.56 105.69M571.17 291.225s10.1-19.595 29.1-13.655c39.625 12.38 29.095 98.28-37.41 105.69"/><path d="M569.545 272.4c.81 33.21.33 86.185-14.035 129.185-26.875 80.45-112.63 98.68-153.335 98.68-40.71 0-126.46-18.23-153.335-98.68-15.19-45.445-15.71-102.075-13.745-134.66 0 0-.815-25.085 30.74-47.585 30.28-21.585 129.235-33.72 161.98-48.75 57.21-26.25 63.645-57.5 63.645-57.5s75.625 58.75 78.085 159.31"/><path d="M357.76 304.73c0 24.825-15.43 44.955-34.46 44.955-19.035 0-34.47-20.13-34.47-44.955 0-24.83 15.435-44.96 34.47-44.96 19.03 0 34.46 20.13 34.46 44.96M517.365 304.73c0 24.825-15.43 44.955-34.465 44.955-19.035 0-34.465-20.13-34.465-44.955 0-24.83 15.43-44.96 34.465-44.96 19.035 0 34.465 20.13 34.465 44.96"/><path d="M352.39 311.215c0 16.915-9.515 30.625-21.25 30.625s-21.25-13.71-21.25-30.625c0-16.91 9.515-30.625 21.25-30.625s21.25 13.715 21.25 30.625M453.215 311.215c0 16.915 9.51 30.625 21.25 30.625 11.735 0 21.25-13.71 21.25-30.625 0-16.91-9.515-30.625-21.25-30.625-11.74 0-21.25 13.715-21.25 30.625M403.215 472.21c-52.5 0-56.25-61.25-56.875-75 0 0 55.835 17.5 111.67 0-.625 13.75-4.375 75-56.875 75M304.155 354.75c0 7.77-13.11 14.07-29.275 14.07-16.17 0-29.28-6.3-29.28-14.07 0-7.775 13.11-14.075 29.28-14.075 16.165 0 29.275 6.3 29.275 14.075M559.025 354.75c0 7.77-13.11 14.07-29.28 14.07s-29.275-6.3-29.275-14.07c0-7.775 13.105-14.075 29.275-14.075 16.17 0 29.28 6.3 29.28 14.075"/><path d="M352.015 300.96a6.277 6.277 0 01-6.28 6.275 6.271 6.271 0 01-6.27-6.275 6.271 6.271 0 016.27-6.275c3.47 0 6.28 2.81 6.28 6.275M494.07 300.96a6.276 6.276 0 01-6.275 6.275c-3.47 0-6.28-2.81-6.28-6.275a6.277 6.277 0 016.28-6.275 6.276 6.276 0 016.275 6.275M238.005 360.175l-2.915-33.75s-8.215-20.93-20.835-24.165c-16.25-4.17-16.575 23.795-5.415 39.58 17.08 24.17 29.165 18.335 29.165 18.335M568.84 360.175l2.92-33.75s8.21-20.93 20.83-24.165c16.25-4.17 16.58 23.795 5.42 39.58-17.08 24.17-29.17 18.335-29.17 18.335M398.925 418.04c19.75 0 37.405 9.23 49.205 23.72 8.37-17.52 9.555-37.42 9.88-44.55-55.835 17.5-111.67 0-111.67 0 .295 6.475 1.285 23.505 7.745 39.71 11.59-11.665 27.39-18.88 44.84-18.88M326.335 270.785c7.985 0 15.595 1.45 22.615 3.99-6.315-9.19-15.45-15.005-25.65-15.005-11.52 0-21.69 7.4-27.95 18.72 9.135-4.875 19.695-7.705 30.985-7.705M480.085 270.785c-7.985 0-15.595 1.45-22.61 3.99 6.31-9.19 15.445-15.005 25.645-15.005 11.525 0 21.69 7.4 27.95 18.72-9.135-4.875-19.7-7.705-30.985-7.705M169.585 626.1l-18.125-41.25s6.565-26.875 5-40.94c-1.565-14.06-12-26.63-19.375-33.75-9.065-8.75-13.75-15.315-15.31-20-1.565-4.69-2.19-24.375-2.19-24.375s-10 .625-12.815 3.435c-2.81 2.815-3.435 15.625-4.375 19.69-.405 1.765-37.185 82.5-37.185 82.5l10.31 17.815 41.565 22.81L134.9 657.66s27.495-6.875 34.685-31.56M227.58 119.335c4.99 21.99 153.215 31.7 190.77 22.135 20.955-5.34 13.36-11.6-1.065-12.045-136.505-4.16-149.855-41.8-149.855-41.8l-39.85 31.71"/><path d="M352.59 222.835c-13.125-10-46.25-15-64.375 6.875M354 278.67c-14.47-30.49-75.065-30.625-66.41 41.295" fill="none"/><path d="M233.34 290.895s-10.1-19.595-29.095-13.655c-39.63 12.385-26.92 98.28 38.56 105.69m-37.85-82.535s13.06-8.905 29.095 26.125m335.495-54.12c.81 33.21.33 86.185-14.035 129.185-26.875 80.45-112.63 98.68-153.335 98.68-40.71 0-126.46-18.23-153.335-98.68-15.19-45.445-15.71-102.075-13.745-134.66 0 0-.815-25.085 30.74-47.585 30.28-21.585 129.235-33.72 161.98-48.75 57.21-26.25 63.645-57.5 63.645-57.5s75.625 58.75 78.085 159.31zm-118.83-49.565c13.125-10 46.25-15 64.375 6.875" fill="none"/><g fill="none"><path d="M450.785 281.62c11.82-33.365 76.56-35.83 67.635 38.345M571.17 291.225s10.1-19.595 29.1-13.655c39.625 12.38 29.095 98.28-37.41 105.69m36.32-82.535s-13.055-8.905-29.09 26.125m-294.375-28.135l11.03 6.875m232.515 0l14.785-6.875m-131.87 79.12v-10M190.92 286.1s-11.07-114.58 43.36-193.84C320.4-33.16 491.65 4.34 515.09 56.84c0 0 110.675 13.435 95.885 225.31M134.51 656.805s-15.965-47.29-26.445-57.945m43.76-16.17s5.905 29.305 17.02 42.445m-7.125-16.245s15.08-8.23 17.79 2.395c2.365 9.295 29.06 87.025 38.945 101.06M174.06 618.48c-3.87 10.06-16.825 37.12-45.975 43.03m-1.435-25.5c-4.3 6.21-12.52 19.845-7.43 26.86 6.705 9.25 26.975 67.495 33.02 86.47 6.05 18.995 29.6 31.875 45.16 23.165 34.06-19.075 87.76-96.305 87.76-96.305m92.445-157.755s-56.09 19.95-70.675 22.755c-14.59 2.81-34.79 13.465-42.08 29.18-7.3 15.71-59.895 107.595-59.895 107.595m223.93-162.895s72.18 22.78 89.575 27.27c17.395 4.485 43.955 19.61 48.63 54.96 4.675 35.355 23.745 199.19 23.745 199.19M277.75 619.755c6.72 53.31 11 87.29 14.075 110.12m242.69-108.785s-7.715 61.25-15.145 111.315m5.245 11.93L538.1 796.5M377.605 522.685l1.065-19.97m50.215 19.97l-1.07-19.97m-24.6-30.505c-52.5 0-56.25-61.25-56.875-75 0 0 55.835 17.5 111.67 0-.625 13.75-4.375 75-56.875 75"/></g><path d="M352.39 311.215c0 16.915-9.515 30.625-21.25 30.625s-21.25-13.71-21.25-30.625c0-16.91 9.515-30.625 21.25-30.625s21.25 13.715 21.25 30.625M453.215 311.215c0 16.915 9.51 30.625 21.25 30.625 11.735 0 21.25-13.71 21.25-30.625 0-16.91-9.515-30.625-21.25-30.625-11.74 0-21.25 13.715-21.25 30.625"/><path d="M352.015 300.96a6.277 6.277 0 01-6.28 6.275 6.271 6.271 0 01-6.27-6.275 6.271 6.271 0 016.27-6.275c3.47 0 6.28 2.81 6.28 6.275M494.07 300.96a6.276 6.276 0 01-6.275 6.275c-3.47 0-6.28-2.81-6.28-6.275a6.277 6.277 0 016.28-6.275 6.276 6.276 0 016.275 6.275"/><path d="M205.21 367.465s9.375 94.375 125.205 161.875m267.715-160s-4.795 88.34-117.5 157.5M522.23 543.905s-26.38 37.08-118.6 37.08c-85.25 0-109.785-34.48-109.785-34.48M121.285 572.35s-19.55-23.3-7.175-48.155c-6.565-7-13.8-25.6-12.135-37.68 1.46-10.575 2.915-19.55 13.96-21.63 1.58-.3 4.71 1.64 4.225 4.915-1.075 7.225.185 18.865 7.65 29.12 8.065 11.095 25.525 22.785 28.495 41.745 2.935 18.715-6.72 47.62-6.72 47.62m-82.19-11.875s10.625 30.835 43.44 28.025" fill="none"/><path d="M107.88 319.725c-.105 4.05-3.525 7.25-7.65 7.165-4.11-.09-7.38-3.44-7.27-7.48l2.99-121.275c.105-4.025 3.53-7.22 7.645-7.13 4.115.08 7.375 3.43 7.28 7.475l-2.995 121.245zm-31.725 8.52c-4.105.255-7.64-2.8-7.895-6.84L60.785 200.34c-.245-4.015 2.89-7.5 6.995-7.755 4.12-.25 7.66 2.82 7.905 6.835l7.475 121.06c.255 4.045-2.88 7.51-7.005 7.765zM50.61 329.95c-4.08.6-7.865-2.16-8.47-6.165l-17.89-119.96c-.605-3.995 2.225-7.725 6.3-8.31 4.08-.595 7.87 2.155 8.465 6.135L56.91 321.635c.595 3.995-2.225 7.72-6.3 8.315zm63.37-166.085c-15.54-16.355-47.605-31.415-88.285-15.3-23.09 9.155-26.27 28.955-19.655 51.59l27.82 152.21 43.485 10.92 43.71-17.805s7.155-133.38 7.38-133.395c1.455-18.535-1.425-34.5-14.455-48.22"/><path d="M107.88 319.725c-.105 4.05-3.525 7.25-7.65 7.165-4.11-.09-7.38-3.44-7.27-7.48l2.99-121.275c.105-4.025 3.53-7.22 7.645-7.13 4.115.08 7.375 3.43 7.28 7.475l-2.995 121.245zm-31.725 8.52c-4.105.255-7.64-2.8-7.895-6.84L60.785 200.34c-.245-4.015 2.89-7.5 6.995-7.755 4.12-.25 7.66 2.82 7.905 6.835l7.475 121.06c.255 4.045-2.88 7.51-7.005 7.765zM50.61 329.95c-4.08.6-7.865-2.16-8.47-6.165l-17.89-119.96c-.605-3.995 2.225-7.725 6.3-8.31 4.08-.595 7.87 2.155 8.465 6.135L56.91 321.635c.595 3.995-2.225 7.72-6.3 8.315zm63.37-166.085c-15.54-16.355-47.605-31.415-88.285-15.3-23.09 9.155-26.27 28.955-19.655 51.59l27.82 152.21 43.485 10.92 43.71-17.805s7.155-133.38 7.38-133.395c1.455-18.535-1.425-34.5-14.455-48.22z" fill="none"/><path d="M121.055 345.48S88.45 373.6 91.66 408.17c3.22 34.58 20.705 208.135 21.45 213.455 2.66 19.08-33.67 23.645-35.005 1.295-.325-5.365-3.105-178.945-4.175-213.655-1.06-34.705-40.07-56.9-40.07-56.9s60.79 2.455 87.195-6.885"/><path d="M121.055 345.48S88.45 373.6 91.66 408.17c3.22 34.58 20.705 208.135 21.45 213.455 2.66 19.08-33.67 23.645-35.005 1.295-.325-5.365-3.105-178.945-4.175-213.655-1.06-34.705-40.07-56.9-40.07-56.9s60.79 2.455 87.195-6.885z" fill="none"/><path d="M62.195 553.405s-7.89 4.46-7.755 10.26c.135 5.81 3.05 11.67 13.06 11.39 10.02-.275 29.265-3.38 33.3-5.315 6.64-3.18 6.2-15.03-1.125-17.02-10.055-2.735-22.07-2.785-37.48.685"/><path d="M62.195 553.405s-7.89 4.46-7.755 10.26c.135 5.81 3.05 11.67 13.06 11.39 10.02-.275 29.265-3.38 33.3-5.315 6.64-3.18 6.2-15.03-1.125-17.02-10.055-2.735-22.07-2.785-37.48.685z" fill="none"/><path d="M54.565 529.025s-9.245 4.25-9.645 10.755c-.4 6.505 2.31 13.34 13.54 13.975 11.235.635 33.055-1.025 37.755-2.81 7.73-2.925 8.36-16.225.345-19.155-10.99-4.005-24.425-5.195-41.995-2.765"/><path d="M54.565 529.025s-9.245 4.25-9.645 10.755c-.4 6.505 2.31 13.34 13.54 13.975 11.235.635 33.055-1.025 37.755-2.81 7.73-2.925 8.36-16.225.345-19.155-10.99-4.005-24.425-5.195-41.995-2.765z" fill="none"/><path d="M39.495 479.22c4.77-2.245 19.3.085 26.905 1.795 10.625 2.385 17.625 19.53 3.25 21.405s-27.91 1.89-33.465-.385c-6.875-2.815-7.315-17.815 3.31-22.815"/><path d="M39.495 479.22c4.77-2.245 19.3.085 26.905 1.795 10.625 2.385 17.625 19.53 3.25 21.405s-27.91 1.89-33.465-.385c-6.875-2.815-7.315-17.815 3.31-22.815z" fill="none"/><path d="M44.885 507.405s-8.555-.13-9.495 6.745c-.935 6.875 1.4 14.34 13.275 15.905 11.875 1.56 28.625 2.36 33.755.845 8.44-2.5 10.595-17.75 1.875-20.31-13.65-4.015-27.61-4.515-39.41-3.185"/><path d="M44.885 507.405s-8.555-.13-9.495 6.745c-.935 6.875 1.4 14.34 13.275 15.905 11.875 1.56 28.625 2.36 33.755.845 8.44-2.5 10.595-17.75 1.875-20.31-13.65-4.015-27.61-4.515-39.41-3.185z" fill="none"/><path d="M516.435 796.395l13.15-90.295c-36.25-36.25-46.425-90-46.425-90s-1.37-66.565-12.725-93.605l-21.79-8.75c14.085 52.545 12.76 99.405 12.76 99.405H352.59s-1.325-46.86 12.76-99.405l-21.79 8.75c-11.36 27.04-12.725 93.605-12.725 93.605s-12.5 56.25-48.75 92.5l14.58 87.05 219.77.745"/><path d="M406.46 714.85c-85 0-107.5-25-107.5-23.75-2.405 2.84-14.22 14.84-16.875 17.5l14.58 87.05 219.77.745 13.15-90.295c-2.385-2.385-10.965-13.745-13.125-16.25 0 .625-25 25-110 25"/><path d="M516.435 796.395l13.15-90.295c-36.25-36.25-46.425-90-46.425-90s-1.37-66.565-12.725-93.605l-21.79-8.75c14.085 52.545 12.76 99.405 12.76 99.405H352.59s-1.325-46.86 12.76-99.405l-21.79 8.75c-11.36 27.04-12.725 93.605-12.725 93.605s-12.5 56.25-48.75 92.5l14.58 87.05" fill="none"/></svg><svg version="1.1" id="logo-svg" x="0" y="0" viewBox="0 0 292.5 292.7" xml:space="preserve" xmlns="http://www.w3.org/2000/svg"><style>.bst0{fill:#fff}.bst1,.bst2,.bst3{fill:#1c75bc;stroke:#8bc25c;stroke-width:1.7972;stroke-miterlimit:10}.bst2,.bst3{fill:none}.bst3{stroke:#004b67}.bst4{display:none}.bst5{display:inline;fill:none;stroke:#8bc25c;stroke-width:1.7972;stroke-miterlimit:10}.bst6{fill:#8bc25c}.bst7{fill:#004b67}.bst8{fill:none;stroke:#004b67;stroke-width:7;stroke-miterlimit:10}</style><path class="bst0" d="M7.5 8.2H283v275.5H7.5z"/><path class="bst1" d="M30.2 148c.3 38.5.3 78.5 0 117.7M35.2 276.8c-.5-15.8-1.3-31.4-2.1-47.1l1.6 46.8c.2.1.3.2.5.3z"/><path class="bst1" d="M33.1 229.7L30.2 148c.2 27.4 1.5 54.5 2.9 81.7zM39.4 279.3c-2.9-43.9-5.7-87.4-9.2-131.3l9.2 131.3zM39.4 235.1c-2.8-29.2-5.7-58.3-9.2-87.1l9.2 87.1zM44.2 281.1l-4.8-46c1.5 15.3 3 30.7 4.5 46.1.1 0 .2-.1.3-.1zM48.9 281.1L30.2 148c6.3 44.7 12.3 88 18.3 133 .2 0 .3.1.4.1zM54 281.7C46.1 237 38 192.2 30.2 148l23.6 133.7h.2z"/><path class="bst1" d="M58.2 283.5c.3 0 .6.1.8.2L30.2 148c6.6 41 17.8 79.7 25.4 122.2.8 4.5 1.7 8.9 2.6 13.3z"/><path class="bst2" d="M30.2 148L64 283.4M30.2 148l39.6 138M30.2 148l45.4 139.7M30.2 148l50.2 138M30.2 148L86 286M30.2 148L92 286.8M30.2 148l67.6 138.6M30.2 148l73.4 138M30.2 148l79.9 138.3M30.2 148l86.9 139.1M30.2 148l93.1 138M30.2 148l100.2 137.9M30.2 148l107.5 137.6M30.2 148l114.2 136.1M30.2 148L153 284.3M30.2 148l133.7 138.4M30.2 148l142.3 137.4M30.2 148l153.2 137.9M30.2 148l158.5 133M30.2 148l166.4 130M30.2 148l187.6 136.3M30.2 148l192.3 129.7M30.2 148l196.7 122.9M30.2 148l200.9 116M30.2 148L235 256.9M30.2 148l208.5 101.7M30.2 148l211.9 94.3M30.2 148l215 86.9M30.2 148l218 79.3M30.2 148l220.6 71.7M30.2 148l223 63.9M30.2 148l225.1 56.1M30.2 148l226.9 48.2M30.2 148l228.4 40.3M30.2 148l229.7 32.3M30.2 148l230.7 24.2M30.2 148l231.4 16.2M30.2 148l231.8 8.1M30.2 148h231.9"/><path class="bst1" d="M21.8 148h8.4-8.4zM21.8 148.3l8.4-.3-8.4.3z"/><path class="bst1" d="M21.7 148.7c2.8-.2 5.7-.5 8.5-.7l-8.5.6v.1zM21.7 148.9c2.8-.3 5.7-.6 8.5-.9l-8.5.9zM21.6 149.2l8.6-1.2c-2.8.4-5.7.8-8.6 1.2zM21.6 149.5c2.9-.5 5.8-1 8.6-1.5l-8.6 1.5z"/><path class="bst1" d="M21.5 150.3c2.9-.7 5.8-1.5 8.7-2.3l-8.7 1.9c0 .1 0 .1-.1.2 0 .1 0 .2.1.2z"/><path class="bst1" d="M21.4 150.2c2.9-.7 5.9-1.4 8.8-2.2l-8.8 2.2zM21.5 150.5c2.9-.8 5.8-1.6 8.7-2.5l-8.7 2.5zM21.6 150.8v.1c2.9-1 5.7-1.9 8.6-2.9l-8.6 2.8z"/><path class="bst1" d="M21.6 150.9v.2l8.5-3.1c-2.7 1-5.6 2-8.5 2.9zM21.7 151.4c0 .1 0 .1 0 0 2.8-1.1 5.7-2.2 8.5-3.4l-8.5 3.4z"/><path class="bst1" d="M21.8 151.6v.1l8.4-3.7c-2.8 1.1-5.6 2.3-8.4 3.6z"/><path class="bst1" d="M30.2 148l-8.4 4.1c2.8-1.4 5.6-2.7 8.4-4.1z"/><path class="bst1" d="M30.2 148c-2.8 1.4-5.6 2.9-8.4 4.4v.1l8.4-4.5zM21.8 152.9l8.4-4.9c-2.8 1.6-5.6 3.2-8.4 4.9 0-.1 0-.1 0 0zM21.8 153.3l8.4-5.3-8.4 5.1v.2z"/><path class="bst1" d="M21.7 153.7l8.5-5.7c-2.8 1.8-5.7 3.6-8.5 5.5v.2zM21.6 154.3l8.6-6.3c-2.9 2-5.7 4.1-8.6 6.1v.2z"/><path class="bst1" d="M21.4 154.9c2.9-2.3 5.9-4.6 8.8-6.9l-8.8 6.9z"/><path class="bst1" d="M21 155.7c3.1-2.6 6.1-5.2 9.2-7.8l-9.2 7.8zM30.2 148l-9.3 8.4v.1c3.2-2.8 6.3-5.7 9.3-8.5zM30.2 148c-2.7 2.6-5.3 5.2-8 7.7"/><path class="bst1" d="M21 157.5l9.2-9.5c-3.1 3-6.2 6-9.2 9.1v.4zM30.2 148c-2.3 2.5-4.6 5.1-6.9 7.6M20.9 159.1l9.3-11.1c-3.1 3.6-6.2 7.2-9.3 10.7v.2c-.1.1-.1.2 0 .2zM30.2 148c-3.1 3.9-6.2 7.9-9.2 11.8l9.2-11.8zM21 160.7c3.1-4.2 6.2-8.5 9.2-12.7L21 160.7zM20.9 161.8c0 .2.1.4.1.6 3.1-4.8 6.2-9.5 9.2-14.4l-9.3 13.8z"/><path class="bst1" d="M21 162.5v.2l9.2-14.7c-3.1 4.8-6.1 9.7-9.2 14.5zM20.8 164.7c3.1-5.5 6.3-11.1 9.4-16.7l-9.3 16.1c0 .2-.1.3-.1.5v.1zM30.2 148c-2.4 4.6-4.9 9.2-7.3 13.8M30.2 148c-2.1 4.7-4.7 9.7-7.4 15.1M30.2 148c-2.1 4.7-4.7 9.7-7.3 16.4M30.2 148c-2.1 6-5.9 12.2-7.3 18.1M30.2 148c-2.1 6-4.7 13.5-7.3 20.1M30.2 148c-3.4 7.2-4.7 14.7-7.4 22.6M30.2 148c-3.4 8.5-4.7 17.2-7.3 25.6M30.2 148c-2.1 9.7-4.7 21-7.8 31.1M30.2 148c-2.1 12.2-4.7 26-8.1 38M30.2 148c-3.4 14.7-4.7 31-8.1 46.2M21.7 208.6l-1.2 7.8v.1l1.2-7.9zM30.2 148c-3.4 18.5-5.9 36-7.8 55.2M22.3 223.2l-.9 8.9c0 .1.1.3.1.4.3-3.1.6-6.2.8-9.3zM30.2 148c-2.1 23.5-5.9 46-7.4 69.9M30.2 148c-3.4 31-2.1 62.2-6.6 94M26.8 244.8l3.4-96.7c-1.5 31.7-2.6 64.1-3.6 96.4.1.1.2.2.2.3z"/><g><path class="bst3" d="M30.7 148c.5-43.3.5-85.8.2-129.1M30.7 148c-.7-43.3 5.5-85.8 5.4-129.6M30.7 148c1.7-43.3 5.5-85.8 9-130M30.7 148C32.4 104.7 41.2 61 44 17.7M30.7 148c4.5-33.6 9-67.2 14-100.8 1.4-9.7 2.9-19.3 4.4-29M30.7 148C36.9 114.4 42 80.5 47.9 46.9c1.7-9.5 3.4-19 5.3-28.5M30.7 148C39.9 104.7 50 62.2 58.5 18.8M30.7 148c9.2-43.3 23-85.8 32.6-129.4M30.7 148c14.2-47.4 24.5-88.4 39-136.1M30.7 148c15.4-48.6 30.2-91.7 45-138.7M30.7 148C46.1 99.4 61.8 64.9 78.6 16.4"/><path class="bst3" d="M30.7 148c1.6-7.4 5.4-13.6 7.9-21.1C54.8 85.6 69.4 59.4 85.8 18"/><path class="bst3" d="M30.7 148c2.9-3.6 2.9-7.4 4.2-11.1C56.2 91.9 70 59.1 90 14.7M30.7 148C53.6 99.4 73.2 63 95.9 14.2"/><path class="bst3" d="M30.7 148c4.2-8.6 7.9-17.3 12.9-26.1C67.3 83.1 76.5 55.2 100 16.4M30.7 148c26.7-48.6 52.8-89.5 79.6-137.8M30.7 148c29.2-48.6 52-82.6 82.2-131.6M30.7 148c15.4-22.4 65.1-96 82.5-122.5"/><path class="bst3" d="M30.7 148c4.2-8.6 12.9-14.9 16.7-23.6 3.7-6.3 10-12.5 15-18.7 26.2-35 32.1-45.8 56.6-79M30.7 148c37.9-48.6 56.2-71.5 93.8-120.1M30.7 148c22.2-24.1 90-107.6 110.3-131.6M30.7 148C73.6 99.4 110.4 59.5 154 11"/><path class="bst3" d="M30.7 148c9.1-11.1 20.4-21.1 30.4-32.4 37.5-38.8 65.3-64.5 97.6-101.5M30.7 148c3.6-3.5 7.3-7 10.9-10.5l27.6-26.7 36.7-35.5c12.8-12.3 25.6-24.7 38.4-37 10.7-10.4 19.2-18.6 30-29M30.7 148c54.2-48.6 98.4-88.7 152.2-137M30.7 148c22.3-18.7 44.6-37.3 66.9-56 22.3-18.6 44.5-37.2 66.7-55.9 12.5-10.5 16.2-13.7 28.7-24.2M30.7 148L205 11.8M30.7 148L218.3 11.7M30.7 148L222.9 18.3M30.7 148L227.3 25.1M30.7 148L231.5 32M30.7 148L235.4 39.1M30.7 148L239.1 46.3M30.7 148l211.8-94.3M30.7 148l215-86.9M30.7 148l217.9-79.3M30.7 148l220.5-71.7M30.7 148l222.9-63.9M30.7 148l225-56.1M30.7 148l226.8-48.2M30.7 148l228.4-40.3M30.7 148l229.6-32.3M30.7 148l230.6-24.2M30.7 148L262 131.8M30.7 148l231.7-8.1M30.7 148h231.9M30.7 148c-6.7 0-13.4 0-20.1.1M30.7 148c-6.7-.2-13.3-.5-20-.7M30.7 148c-6.6-.5-13.2-.9-19.8-1.3M30.7 148c-6.9-.8-13.7-1.5-20.6-2.3M30.7 148c-6.9-1-13.7-2-20.6-3M30.7 148c-6.8-1.3-13.6-2.5-20.4-3.6M30.7 148c-6.7-1-13.4-2.2-20-3.6M30.7 148c-6.7-1.5-13.4-3.1-20.1-4.8M30.7 148c-6.9-1.9-13.9-3.9-20.8-5.9M30.7 148c-7.1-2.2-14.2-4.4-21.2-6.7M30.7 148c-7.1-2.5-14.1-5.1-21.2-7.6M30.7 148c-7-3.1-14-6-21.1-8.9M30.7 148c-6.9-3.3-13.9-6.5-20.9-9.6M30.7 148c-7.1-3.4-14.1-6.8-21.1-10.2M30.7 148c-7-3.7-14-7.4-21-11.2M30.7 148c-7-4.1-14-8.2-21-12.4M30.7 148c-7-4.3-14-8.7-20.9-13.1M30.7 148c-7.2-4.9-14.3-9.8-21.4-14.7M30.7 148c-7.3-5.3-14.5-10.5-21.8-15.7M30.7 148c-7.5-5.8-14.1-12.7-21.5-18.5M30.7 148c-7.3-5.8-14.4-11.7-21.5-17.7M30.7 148c-7.1-7.2-14.4-14.2-21.8-21M30.7 148c-6.9-7.7-14.2-15.1-21.6-22.4M30.7 148c-7.1-7.5-14.2-14.9-21.4-22.3M30.7 148c-7.4-7.4-14.5-15.1-21.5-22.8M30.7 148c-7.7-8.9-15.4-17.8-23-26.8M30.7 148c-7.3-9.8-14.7-19.5-22.1-29.2M30.7 148c-7.5-9.9-14.9-19.9-22.2-29.9M30.7 148c-7.4-11.1-14.8-22.1-22.2-33.2M30.7 148c-7.3-11.4-14.6-22.9-21.9-34.4M30.7 148c-8.3-14.3-16.6-28.5-24.9-42.8M30.7 148L7 103.6M30.7 148c-7.8-15.8-15.5-31.7-23.2-47.5M30.7 148c-9.8-17.9-16-37.5-25-55.8M30.7 148c-7.9-19.7-15.9-39.4-23.8-59M30.7 148c-8.2-20.8-15.8-41.8-23.2-62.9M30.7 148c-8.2-24.5-16.5-48.9-24.5-73.4M30.7 148c-8.9-27.8-15.9-56.2-23.8-84.3M30.7 148c-7.2-29.7-14.7-59.3-22-89M30.7 148c-6.1-31.2-13-62.2-19.6-93.3"/><path class="bst3" d="M30.7 148C24.4 118.8 20 89.3 15.2 59.8 13.8 51.4 12.5 43 11 34.7"/><path class="bst3" d="M30.7 148C24 115 20.1 81.6 16.1 48.2c-1.1-9.5-2.3-19-3.6-28.5M30.7 148c-5.8-42-9.5-85.8-13.3-128.4M30.7 148c-4.5-42-5.8-85.8-9-128.6M30.7 148c-3.2-43.3-3.2-85.8-4.5-129.1"/></g><g class="bst4"><path class="bst5" d="M30.7 148c.4 45.2.4 90.2 0 134.7M30.7 148c.4 45.2 2.9 88.9 4.6 133.8M30.7 148c2.9 45.2 6.7 90.2 9.5 135.6M30.7 148c4.2 45.2 10.4 90.2 14.3 135.7M30.7 148c1.3 9.3 17 120.7 18.9 134.7M30.7 148c7.9 45.2 16.7 91.4 24 136M30.7 148c10.4 45.2 20.4 90.2 28.8 135.1M30.7 148c11.7 45.2 22.9 91.4 34.1 136.9M30.7 148c12.9 45.2 25.4 90.2 38.7 134.8M30.7 148l44.1 135.9M30.7 148l49.5 136.2M30.7 148s41.7 102.7 54.4 134.6M30.7 148c9.8 15.6 2.4 7.1 60.5 135.9M39.4 166L97 284M30.7 148c17.9 31 61.9 119.5 73 137.3M30.7 148c5.8 10.1 70.7 122.4 79.4 137.5M30.7 148c25.3 40.7 58.4 93.5 87.1 139.4M30.7 148c11.6 16.7 69.5 103.9 92.2 136.7M30.7 148c28.8 40.1 83.4 114.3 100.1 137.8M30.7 148c31.4 40.1 72.2 92.2 108 138.2M30.7 148c38.4 45.9 77.2 91 115.2 137.2M30.7 148c35.8 38.6 82.2 92.2 123.8 137.5M30.7 148c7.3 6.9 121.9 126.2 121.9 126.2M30.7 148c14.4 12.8 139 135.1 144 139M30.7 148c27.4 24.5 144 129 154.7 139.3M30.7 148c38.7 32 149.5 125.5 161.5 135.5M30.7 148c45.3 35.8 114.7 88.4 172.6 134.9M30.7 148l187.6 136.3M30.7 148l192.2 129.7M30.7 148l196.6 122.9M30.7 148l200.8 116M30.7 148l204.7 108.9M30.7 148l208.4 101.7M30.7 148l211.8 94.3M30.7 148l215 86.9M30.7 148l217.9 79.3M30.7 148l220.5 71.7M30.7 148l222.9 63.9M30.7 148l225 56.1M30.7 148l226.8 48.2M30.7 148l228.4 40.3M30.7 148l229.6 32.3M30.7 148l230.6 24.2M30.7 148L262 164.2M30.7 148l231.7 8.1M30.7 148h231.9M30.7 148c-9.6 0-19.2.1-28.8.1M30.7 148c-9.8.4-19.7.7-29.5 1M30.7 148c-9.8.4-19.6 1.1-29.3 1.8M30.7 148c-9.4.8-18.8 1.7-28.3 2.8M30.7 148c-9.4 1.5-18.9 2.9-28.4 4.2M30.7 148c-9.3 1.8-18.6 3.6-28 5.2M30.7 148c-9.3 1.9-18.7 3.8-28 5.8M30.7 148c-9.3 2.6-18.7 4.9-28.1 7.2M30.7 148c-9.5 2.6-18.9 5.3-28.4 8.1M30.7 148c-10 3.2-19.9 6.5-29.9 9.7M30.7 148c-9.7 3.8-19.5 7.4-29.4 10.9M30.7 148c-9.7 3.9-19.4 7.8-29.1 11.8M30.7 148c-9.6 4.4-19.2 8.8-28.8 13M30.7 148c-9.2 5.2-18.6 10-28.1 14.5M30.7 148c-9.7 4.4-19.1 9.3-28.4 14.4M30.7 148c-9.5 5.1-18.9 10.4-28.2 15.9M30.7 148c-10.1 5.7-20 11.8-29.8 17.9M30.7 148c-9.2 5.7-18 12-26.9 18M30.7 148c-8.9 6.1-17.7 12.2-26.5 18.5M30.7 148c-8.7 6.6-17.3 13.3-25.8 20M30.7 148c-9.4 5.8-17.1 13.8-25.1 21.3M30.7 148C22 155.2 13.5 162.6 5 170.1M30.7 148c-8.4 7.9-16.8 15.9-25.1 23.9M30.7 148L5.3 174.3M30.7 148L5.5 175.6M30.7 148c-8.4 10-17.1 19.8-25.7 29.7M30.7 148c-8.5 10.3-16.7 20.7-24.9 31.2M30.7 148c-8.2 10.9-16.3 22-24.3 33.2M30.7 148c-8.2 11.7-16.2 23.5-24.2 35.4M30.7 148c-8.1 13.1-16.3 26.1-24.4 39.1M30.7 148c-9.6 16.2-19.1 32.5-28.5 48.8M30.7 148c-9.2 18.2-19.5 35.9-29 54M30.7 148c-9.6 19.8-19.3 39.5-28.9 59.3M30.7 148c-9.7 21.3-18.4 43-28.3 64.2M30.7 148c-11.5 22.6-20 47.2-28.9 70.9M30.7 148c-10.4 26-19 52.7-28.4 79.1M30.7 148c-10.4 28.3-18.8 57.3-27.9 86.1M30.7 148C21 181.6 11.4 215.1 1.8 248.7M30.7 148c-10.8 38.9-17.1 78.9-29 116.3M30.7 148c-9.6 45.2-19.6 88.9-28.4 133.4M30.7 148c-8.4 43.9-15.9 88.9-23.5 133.5M30.7 148c-5.9 45.2-12.1 88.9-18.8 133.8M30.7 148c-5.9 45.2-8.4 88.9-14.1 133.9M30.7 148c-3.3 45.2-5.9 88.9-9.4 133.9M30.7 148c-2.1 45.2-3.3 90.2-4.7 134.6"/></g><path class="bst2" d="M28.8 148.8l53.8.3M24.3 148h240.2"/><path class="bst0" d="M286.5 6.8S10.1 3.7 6.1 5c-1.5 48.7 0 281.2-.2 282.7 1-.2 280.2 1 280.6.9-.6-1.5.1-266.4 0-281.8zM145.6 261.2c-64 0-115.9-51.9-115.9-115.9S81.6 29.4 145.6 29.4s115.9 51.9 115.9 115.9-51.9 115.9-115.9 115.9z"/><circle class="bst6" cx="60.8" cy="83.2" r="49.2"/><g><path class="bst7" d="M26.8 85.8c-.8.4-1.7.5-2.8.5-.9 0-1.8-.2-2.6-.5s-1.5-.8-2.1-1.3c-.6-.6-1.1-1.3-1.4-2.1s-.5-1.7-.5-2.7c0-1 .2-1.9.5-2.7s.8-1.5 1.4-2.1c.6-.6 1.3-1 2.1-1.3.8-.3 1.7-.4 2.6-.4.9 0 1.7.1 2.6.5.8.3 1.5.8 2.1 1.3l-2 2c-.3-.4-.6-.7-1.1-.9-.4-.2-.9-.3-1.4-.3-.5 0-1 .1-1.4.3s-.8.5-1.1.8-.6.7-.7 1.2c-.2.5-.3 1-.3 1.5 0 .6.1 1.1.3 1.5.2.5.4.9.7 1.2.3.3.7.6 1.1.8.4.2.9.3 1.4.3.6 0 1.1-.1 1.6-.3.4-.2.8-.5 1.1-.9l2.1 2c-.7.7-1.4 1.2-2.2 1.6zM43.2 79.7c0 1-.2 1.9-.5 2.7-.3.8-.8 1.5-1.4 2.1-.6.6-1.3 1-2.1 1.3-.8.3-1.7.5-2.7.5s-1.9-.2-2.7-.5c-.8-.3-1.5-.8-2.1-1.3-.6-.6-1.1-1.3-1.4-2.1-.3-.8-.5-1.7-.5-2.7 0-1 .2-1.9.5-2.7.3-.8.8-1.5 1.4-2 .6-.6 1.3-1 2.1-1.3.8-.3 1.7-.4 2.7-.4 1 0 1.9.1 2.7.4.8.3 1.5.7 2.1 1.3.6.6 1.1 1.2 1.4 2 .4.8.5 1.7.5 2.7zm-3.2 0c0-.5-.1-1-.3-1.5-.2-.5-.4-.9-.7-1.2-.3-.3-.7-.6-1.1-.8-.4-.1-.9-.2-1.4-.2-.5 0-1 .1-1.4.3-.4.2-.8.4-1.1.8-.3.3-.6.7-.7 1.2-.2.5-.2 1-.2 1.5 0 .6.1 1.1.3 1.5.2.5.4.9.7 1.2.3.3.7.6 1.1.8.4.2.9.3 1.4.3s1-.1 1.4-.3c.4-.2.8-.5 1.1-.8s.6-.7.7-1.2c.2-.5.2-1 .2-1.6zM52 76.8c-.3-.3-.6-.6-1-.8-.4-.2-.8-.3-1.2-.3h-.6c-.2 0-.4.1-.5.2-.2.1-.3.2-.4.4-.1.2-.2.4-.2.6 0 .2 0 .4.1.5.1.1.2.3.4.4l.6.3c.2.1.5.2.8.3.4.1.9.3 1.3.5s.9.4 1.2.7c.4.3.7.6.9 1 .2.4.4.9.4 1.5 0 .7-.1 1.3-.4 1.8-.3.5-.6.9-1.1 1.3s-.9.6-1.5.7c-.6.2-1.2.2-1.8.2-.9 0-1.7-.1-2.6-.5-.8-.3-1.5-.7-2.1-1.3l2-2c.3.4.7.7 1.2.9s1 .4 1.5.4c.2 0 .4 0 .6-.1.2 0 .4-.1.5-.2.2-.1.3-.2.4-.4.1-.2.1-.4.1-.6 0-.2-.1-.4-.2-.6-.1-.2-.3-.3-.5-.4-.2-.1-.5-.3-.8-.4-.3-.1-.7-.2-1.1-.4-.4-.1-.8-.3-1.2-.4-.4-.2-.7-.4-1-.7-.3-.3-.5-.6-.7-1-.2-.4-.3-.9-.3-1.4 0-.7.1-1.3.4-1.8.3-.5.6-.9 1.1-1.2.4-.3 1-.5 1.5-.7.6-.1 1.1-.2 1.7-.2.7 0 1.4.1 2.1.4s1.4.6 1.9 1.1L52 76.8zM64.4 86l-1-2.4h-4.8l-.9 2.4h-3.2l5.2-12.4h2.9L67.8 86h-3.4zm-3.3-9.1l-1.6 4.3h3.1l-1.5-4.3zM78.4 77.4c0 .7-.1 1.3-.4 1.8-.3.5-.6.9-1.1 1.2-.4.3-1 .5-1.6.7-.6.1-1.2.2-1.8.2H72V86h-3V73.6h4.6c.7 0 1.3.1 1.9.2.6.1 1.1.3 1.5.6.4.3.8.7 1 1.2.3.5.4 1.1.4 1.8zm-3 0c0-.3-.1-.5-.2-.7-.1-.2-.3-.3-.5-.4-.2-.1-.4-.2-.7-.2h-2V79h1.3c.3 0 .5 0 .8-.1.3 0 .5-.1.7-.2.2-.1.4-.3.5-.5 0-.3.1-.5.1-.8zM87.1 86l-2.7-4.9h-1V86h-2.9V73.6h4.7c.6 0 1.2.1 1.7.2.6.1 1.1.3 1.5.6.4.3.8.7 1.1 1.1.3.5.4 1.1.4 1.8 0 .8-.2 1.5-.7 2.1-.5.6-1.1 1-1.9 1.2l3.2 5.3-3.4.1zm-.1-8.6c0-.3-.1-.5-.2-.7-.1-.2-.3-.3-.5-.4-.2-.1-.4-.2-.6-.2h-2.3V79h1.4c.2 0 .5 0 .8-.1.3 0 .5-.1.7-.2.2-.1.4-.3.5-.4.1-.3.2-.6.2-.9zM105.2 79.7c0 1-.2 1.9-.5 2.7-.3.8-.8 1.5-1.4 2.1-.6.6-1.3 1-2.1 1.3-.8.3-1.7.5-2.7.5-1 0-1.9-.2-2.7-.5-.8-.3-1.5-.8-2.1-1.3-.6-.6-1.1-1.3-1.4-2.1-.3-.8-.5-1.7-.5-2.7 0-1 .2-1.9.5-2.7.3-.8.8-1.5 1.4-2 .6-.6 1.3-1 2.1-1.3.8-.3 1.7-.4 2.7-.4 1 0 1.9.1 2.7.4.8.3 1.5.7 2.1 1.3.6.6 1.1 1.2 1.4 2 .3.8.5 1.7.5 2.7zm-3.2 0c0-.5-.1-1-.3-1.5-.2-.5-.4-.9-.7-1.2-.3-.3-.7-.6-1.1-.8-.4-.2-.9-.3-1.4-.3-.5 0-1 .1-1.4.3-.4.2-.8.4-1.1.8-.3.3-.6.7-.7 1.2-.2.5-.2 1-.2 1.5 0 .6.1 1.1.3 1.5.2.5.4.9.7 1.2.3.3.7.6 1.1.8.4.2.9.3 1.4.3s1-.1 1.4-.3c.4-.2.8-.5 1.1-.8.3-.3.6-.7.7-1.2.1-.4.2-.9.2-1.5zM62.5 101c0 1-.2 1.9-.5 2.7-.3.8-.8 1.5-1.4 2.1-.6.6-1.3 1-2.1 1.3s-1.7.5-2.7.5c-1 0-1.9-.2-2.7-.5-.8-.3-1.5-.8-2.1-1.3-.6-.6-1.1-1.3-1.4-2.1-.3-.8-.5-1.7-.5-2.7 0-1 .2-1.9.5-2.7.3-.8.8-1.5 1.4-2 .6-.6 1.3-1 2.1-1.3.8-.3 1.7-.4 2.7-.4 1 0 1.9.1 2.7.4.8.3 1.5.7 2.1 1.3.6.6 1.1 1.2 1.4 2 .4.8.5 1.7.5 2.7zm-3.2 0c0-.5-.1-1-.3-1.5-.2-.5-.4-.9-.7-1.2s-.7-.6-1.1-.8-.9-.3-1.4-.3c-.5 0-1 .1-1.4.3-.4.2-.8.4-1.1.8-.3.3-.6.7-.7 1.2-.2.5-.2 1-.2 1.5 0 .6.1 1.1.3 1.5.2.5.4.9.7 1.2.3.3.7.6 1.1.8.4.2.9.3 1.4.3s1-.1 1.4-.3.8-.5 1.1-.8.6-.7.7-1.2c.1-.4.2-1 .2-1.5zM70.2 102v5.3h-3V102l-4.7-7.1h3.6l2.6 4.6 2.6-4.6H75l-4.8 7.1z"/></g><path class="bst8" d="M3.3 3.7h286.2v286.2H3.3z"/></svg><svg viewBox="0 0 26 26" id="telegram" xmlns="http://www.w3.org/2000/svg"><path fill-rule="evenodd" clip-rule="evenodd" d="M26 13c0 7.18-5.82 13-13 13S0 20.18 0 13 5.82 0 13 0s13 5.82 13 13zM13.466 9.597c-1.264.526-3.792 1.614-7.581 3.265-.616.245-.938.485-.968.719-.05.396.447.552 1.12.763l.285.091c.664.216 1.557.468 2.02.478.422.009.892-.165 1.411-.52 3.54-2.39 5.368-3.599 5.483-3.625.081-.018.194-.042.27.026.076.067.068.195.06.23-.05.21-1.993 2.017-3 2.953a30.38 30.38 0 00-.582.546c-.102.105-.206.206-.306.302-.617.594-1.079 1.04.026 1.768.531.35.956.64 1.38.928.462.315.924.63 1.521 1.021.152.1.297.203.44.304.538.384 1.022.729 1.62.675.347-.033.706-.359.888-1.333.43-2.303 1.277-7.29 1.474-9.347a2.29 2.29 0 00-.022-.511.548.548 0 00-.186-.352c-.155-.127-.396-.154-.504-.152-.489.009-1.238.27-4.85 1.771z"/></svg></svg>