<?xml version="1.0" encoding="utf-8"?><svg viewBox="0 0 64 16" xmlns="http://www.w3.org/2000/svg" xmlns:xlink="http://www.w3.org/1999/xlink"><style>:root>svg{display:none}:root>svg:target{display:block}</style><svg fill="none" viewBox="0 0 64 16" id="line" xmlns="http://www.w3.org/2000/svg"><path d="M62.78 8.707a1 1 0 000-1.414L56.416.929a1 1 0 10-1.414 1.414L60.657 8l-5.657 5.657a1 1 0 101.415 1.414l6.364-6.364zM0 9h62.072V7H0v2z" fill="#2E2F22"/></svg><svg fill="none" viewBox="0 0 64 16" id="line-copy" xmlns="http://www.w3.org/2000/svg"><path d="M62.78 8.707a1 1 0 000-1.414L56.416.929a1 1 0 10-1.414 1.414L60.657 8l-5.657 5.657a1 1 0 101.415 1.414l6.364-6.364zM0 9h62.072V7H0v2z" fill="#eee"/></svg><svg fill="none" viewBox="0 0 64 16" id="line-copy-2" xmlns="http://www.w3.org/2000/svg"><path d="M62.78 8.707a1 1 0 000-1.414L56.416.929a1 1 0 10-1.414 1.414L60.657 8l-5.657 5.657a1 1 0 101.415 1.414l6.364-6.364zM0 9h62.072V7H0v2z" fill="#aeaeae"/></svg></svg>