<?xml version="1.0" encoding="utf-8"?>
<!-- Generator: Adobe Illustrator 26.3.1, SVG Export Plug-In . SVG Version: 6.00 Build 0)  -->
<svg version="1.1" id="Layer_1" xmlns="http://www.w3.org/2000/svg" xmlns:xlink="http://www.w3.org/1999/xlink" x="0px" y="0px"
	 viewBox="0 0 292.5 292.7" style="enable-background:new 0 0 292.5 292.7;" xml:space="preserve">
<style type="text/css">
	.st0{fill:#FFFFFF;}
	.st1{fill:#1C75BC;stroke:#8BC25C;stroke-width:1.7972;stroke-miterlimit:10;}
	.st2{fill:none;stroke:#8BC25C;stroke-width:1.7972;stroke-miterlimit:10;}
	.st3{fill:none;stroke:#004B67;stroke-width:1.7972;stroke-miterlimit:10;}
	.st4{display:none;}
	.st5{display:inline;fill:none;stroke:#8BC25C;stroke-width:1.7972;stroke-miterlimit:10;}
	.st6{fill:#8BC25C;}
	.st7{fill:#004B67;}
	.st8{fill:none;stroke:#004B67;stroke-width:7;stroke-miterlimit:10;}
</style>
<g>
	<rect x="7.5" y="8.2" class="st0" width="275.5" height="275.5"/>
	<g>
		<g>
			<g>
				<g>
					<path class="st1" d="M30.2,148c0.3,38.5,0.3,78.5,0,117.7"/>
					<path class="st1" d="M35.2,276.8c-0.5-15.8-1.3-31.4-2.1-47.1l1.6,46.8C34.9,276.6,35,276.7,35.2,276.8z"/>
					<path class="st1" d="M33.1,229.7L30.2,148C30.4,175.4,31.7,202.5,33.1,229.7z"/>
					<path class="st1" d="M39.4,279.3c-2.9-43.9-5.7-87.4-9.2-131.3L39.4,279.3C39.4,279.3,39.4,279.3,39.4,279.3z"/>
					<path class="st1" d="M39.4,235.1c-2.8-29.2-5.7-58.3-9.2-87.1L39.4,235.1z"/>
					<path class="st1" d="M44.2,281.1l-4.8-46c1.5,15.3,3,30.7,4.5,46.1C44,281.2,44.1,281.1,44.2,281.1z"/>
					<path class="st1" d="M48.9,281.1L30.2,148c6.3,44.7,12.3,88,18.3,133C48.7,281,48.8,281.1,48.9,281.1z"/>
					<path class="st1" d="M54,281.7C46.1,237,38,192.2,30.2,148l23.6,133.7C53.9,281.7,53.9,281.7,54,281.7z"/>
					<path class="st1" d="M58.2,283.5c0.3,0,0.6,0.1,0.8,0.2L30.2,148c6.6,41,17.8,79.7,25.4,122.2
						C56.4,274.7,57.3,279.1,58.2,283.5z"/>
					<line class="st2" x1="30.2" y1="148" x2="64" y2="283.4"/>
					<line class="st2" x1="30.2" y1="148" x2="69.8" y2="286"/>
					<line class="st2" x1="30.2" y1="148" x2="75.6" y2="287.7"/>
					<line class="st2" x1="30.2" y1="148" x2="80.4" y2="286"/>
					<line class="st2" x1="30.2" y1="148" x2="86" y2="286"/>
					<line class="st2" x1="30.2" y1="148" x2="92" y2="286.8"/>
					<line class="st2" x1="30.2" y1="148" x2="97.8" y2="286.6"/>
					<line class="st2" x1="30.2" y1="148" x2="103.6" y2="286"/>
					<line class="st2" x1="30.2" y1="148" x2="110.1" y2="286.3"/>
					<line class="st2" x1="30.2" y1="148" x2="117.1" y2="287.1"/>
					<line class="st2" x1="30.2" y1="148" x2="123.3" y2="286"/>
					<line class="st2" x1="30.2" y1="148" x2="130.4" y2="285.9"/>
					<line class="st2" x1="30.2" y1="148" x2="137.7" y2="285.6"/>
					<line class="st2" x1="30.2" y1="148" x2="144.4" y2="284.1"/>
					<line class="st2" x1="30.2" y1="148" x2="153" y2="284.3"/>
					<line class="st2" x1="30.2" y1="148" x2="163.9" y2="286.4"/>
					<line class="st2" x1="30.2" y1="148" x2="172.5" y2="285.4"/>
					<line class="st2" x1="30.2" y1="148" x2="183.4" y2="285.9"/>
					<line class="st2" x1="30.2" y1="148" x2="188.7" y2="281"/>
					<line class="st2" x1="30.2" y1="148" x2="196.6" y2="278"/>
					<line class="st2" x1="30.2" y1="148" x2="217.8" y2="284.3"/>
					<line class="st2" x1="30.2" y1="148" x2="222.5" y2="277.7"/>
					<line class="st2" x1="30.2" y1="148" x2="226.9" y2="270.9"/>
					<line class="st2" x1="30.2" y1="148" x2="231.1" y2="264"/>
					<line class="st2" x1="30.2" y1="148" x2="235" y2="256.9"/>
					<line class="st2" x1="30.2" y1="148" x2="238.7" y2="249.7"/>
					<line class="st2" x1="30.2" y1="148" x2="242.1" y2="242.3"/>
					<line class="st2" x1="30.2" y1="148" x2="245.2" y2="234.9"/>
					<line class="st2" x1="30.2" y1="148" x2="248.2" y2="227.3"/>
					<line class="st2" x1="30.2" y1="148" x2="250.8" y2="219.7"/>
					<line class="st2" x1="30.2" y1="148" x2="253.2" y2="211.9"/>
					<line class="st2" x1="30.2" y1="148" x2="255.3" y2="204.1"/>
					<line class="st2" x1="30.2" y1="148" x2="257.1" y2="196.2"/>
					<line class="st2" x1="30.2" y1="148" x2="258.6" y2="188.3"/>
					<line class="st2" x1="30.2" y1="148" x2="259.9" y2="180.3"/>
					<line class="st2" x1="30.2" y1="148" x2="260.9" y2="172.2"/>
					<line class="st2" x1="30.2" y1="148" x2="261.6" y2="164.2"/>
					<line class="st2" x1="30.2" y1="148" x2="262" y2="156.1"/>
					<line class="st2" x1="30.2" y1="148" x2="262.1" y2="148"/>
					<path class="st1" d="M21.8,148h8.4C27.4,148,24.6,148,21.8,148C21.8,148,21.8,148,21.8,148z"/>
					<path class="st1" d="M21.8,148.3c2.8-0.1,5.6-0.2,8.4-0.3L21.8,148.3C21.8,148.3,21.8,148.3,21.8,148.3z"/>
					<path class="st1" d="M21.7,148.7c2.8-0.2,5.7-0.5,8.5-0.7l-8.5,0.6C21.7,148.6,21.7,148.7,21.7,148.7z"/>
					<path class="st1" d="M21.7,148.9c2.8-0.3,5.7-0.6,8.5-0.9L21.7,148.9C21.7,148.9,21.7,148.9,21.7,148.9z"/>
					<path class="st1" d="M21.6,149.2l8.6-1.2C27.4,148.4,24.5,148.8,21.6,149.2C21.6,149.2,21.6,149.2,21.6,149.2z"/>
					<path class="st1" d="M21.6,149.5c2.9-0.5,5.8-1,8.6-1.5L21.6,149.5C21.6,149.5,21.6,149.5,21.6,149.5z"/>
					<path class="st1" d="M21.5,150.3c2.9-0.7,5.8-1.5,8.7-2.3l-8.7,1.9c0,0.1,0,0.1-0.1,0.2C21.4,150.2,21.4,150.3,21.5,150.3z"/>
					<path class="st1" d="M21.4,150.2C21.4,150.2,21.4,150.2,21.4,150.2c2.9-0.7,5.9-1.4,8.8-2.2L21.4,150.2z"/>
					<path class="st1" d="M21.5,150.5C21.5,150.5,21.5,150.5,21.5,150.5c2.9-0.8,5.8-1.6,8.7-2.5L21.5,150.5z"/>
					<path class="st1" d="M21.6,150.8c0,0,0,0.1,0,0.1c2.9-1,5.7-1.9,8.6-2.9L21.6,150.8z"/>
					<path class="st1" d="M21.6,150.9c0,0,0,0.1,0,0.2l8.5-3.1C27.4,149,24.5,150,21.6,150.9z"/>
					<path class="st1" d="M21.7,151.4C21.7,151.5,21.7,151.5,21.7,151.4c2.8-1.1,5.7-2.2,8.5-3.4L21.7,151.4z"/>
					<path class="st1" d="M21.8,151.6c0,0,0,0.1,0,0.1l8.4-3.7C27.4,149.1,24.6,150.3,21.8,151.6z"/>
					<path class="st1" d="M30.2,148l-8.4,4.1v0C24.6,150.7,27.4,149.4,30.2,148z"/>
					<path class="st1" d="M30.2,148c-2.8,1.4-5.6,2.9-8.4,4.4c0,0,0,0.1,0,0.1L30.2,148z"/>
					<path class="st1" d="M21.8,152.9l8.4-4.9C27.4,149.6,24.6,151.2,21.8,152.9C21.8,152.8,21.8,152.8,21.8,152.9z"/>
					<path class="st1" d="M21.8,153.3l8.4-5.3c-2.8,1.7-5.6,3.4-8.4,5.1C21.8,153.1,21.8,153.2,21.8,153.3z"/>
					<path class="st1" d="M21.7,153.7l8.5-5.7c-2.8,1.8-5.7,3.6-8.5,5.5C21.7,153.6,21.7,153.6,21.7,153.7z"/>
					<path class="st1" d="M21.6,154.3l8.6-6.3c-2.9,2-5.7,4.1-8.6,6.1C21.6,154.2,21.6,154.2,21.6,154.3z"/>
					<path class="st1" d="M21.4,154.9c2.9-2.3,5.9-4.6,8.8-6.9L21.4,154.9C21.4,154.9,21.4,154.9,21.4,154.9z"/>
					<path class="st1" d="M21,155.7c3.1-2.6,6.1-5.2,9.2-7.8L21,155.7C21,155.7,21,155.7,21,155.7z"/>
					<path class="st1" d="M30.2,148l-9.3,8.4c0,0,0,0.1,0,0.1C24.1,153.7,27.2,150.8,30.2,148z"/>
					<path class="st1" d="M30.2,148c-2.7,2.6-5.3,5.2-8,7.7"/>
					<path class="st1" d="M21,157.5l9.2-9.5c-3.1,3-6.2,6-9.2,9.1C21,157.2,21,157.4,21,157.5z"/>
					<path class="st1" d="M30.2,148c-2.3,2.5-4.6,5.1-6.9,7.6"/>
					<path class="st1" d="M20.9,159.1l9.3-11.1c-3.1,3.6-6.2,7.2-9.3,10.7c0,0.1,0,0.1,0,0.2C20.8,159,20.8,159.1,20.9,159.1z"/>
					<path class="st1" d="M30.2,148c-3.1,3.9-6.2,7.9-9.2,11.8c0,0,0,0,0,0L30.2,148z"/>
					<path class="st1" d="M21,160.7c3.1-4.2,6.2-8.5,9.2-12.7L21,160.7C21,160.7,21,160.7,21,160.7z"/>
					<path class="st1" d="M20.9,161.8c0,0.2,0.1,0.4,0.1,0.6c3.1-4.8,6.2-9.5,9.2-14.4L20.9,161.8z"/>
					<path class="st1" d="M21,162.5c0,0.1,0,0.1,0,0.2l9.2-14.7C27.1,152.8,24.1,157.7,21,162.5z"/>
					<path class="st1" d="M20.8,164.7c3.1-5.5,6.3-11.1,9.4-16.7l-9.3,16.1c0,0.2-0.1,0.3-0.1,0.5C20.8,164.6,20.8,164.6,20.8,164.7
						z"/>
					<path class="st1" d="M30.2,148c-2.4,4.6-4.9,9.2-7.3,13.8"/>
					<path class="st1" d="M30.2,148c-2.1,4.7-4.7,9.7-7.4,15.1"/>
					<path class="st1" d="M30.2,148c-2.1,4.7-4.7,9.7-7.3,16.4"/>
					<path class="st1" d="M30.2,148c-2.1,6-5.9,12.2-7.3,18.1"/>
					<path class="st1" d="M30.2,148c-2.1,6-4.7,13.5-7.3,20.1"/>
					<path class="st1" d="M30.2,148c-3.4,7.2-4.7,14.7-7.4,22.6"/>
					<path class="st1" d="M30.2,148c-3.4,8.5-4.7,17.2-7.3,25.6"/>
					<path class="st1" d="M30.2,148c-2.1,9.7-4.7,21-7.8,31.1"/>
					<path class="st1" d="M30.2,148c-2.1,12.2-4.7,26-8.1,38"/>
					<path class="st1" d="M30.2,148c-3.4,14.7-4.7,31-8.1,46.2"/>
					<path class="st1" d="M21.7,208.6c-0.4,2.6-0.8,5.2-1.2,7.8c0,0,0,0.1,0,0.1L21.7,208.6z"/>
					<path class="st1" d="M30.2,148c-3.4,18.5-5.9,36-7.8,55.2"/>
					<path class="st1" d="M22.3,223.2l-0.9,8.9c0,0.1,0.1,0.3,0.1,0.4C21.8,229.4,22.1,226.3,22.3,223.2z"/>
					<path class="st1" d="M30.2,148c-2.1,23.5-5.9,46-7.4,69.9"/>
					<path class="st1" d="M30.2,148c-3.4,31-2.1,62.2-6.6,94"/>
					<path class="st1" d="M26.8,244.8l3.4-96.7c-1.5,31.7-2.6,64.1-3.6,96.4C26.7,244.6,26.8,244.7,26.8,244.8z"/>
				</g>
				<g>
					<path class="st3" d="M30.7,148c0.5-43.3,0.5-85.8,0.2-129.1"/>
					<path class="st3" d="M30.7,148c-0.7-43.3,5.5-85.8,5.4-129.6"/>
					<path class="st3" d="M30.7,148c1.7-43.3,5.5-85.8,9-130"/>
					<path class="st3" d="M30.7,148c1.7-43.3,10.5-87,13.3-130.3"/>
					<path class="st3" d="M30.7,148c4.5-33.6,9-67.2,14-100.8c1.4-9.7,2.9-19.3,4.4-29"/>
					<path class="st3" d="M30.7,148C36.9,114.4,42,80.5,47.9,46.9c1.7-9.5,3.4-19,5.3-28.5"/>
					<path class="st3" d="M30.7,148c9.2-43.3,19.3-85.8,27.8-129.2"/>
					<path class="st3" d="M30.7,148c9.2-43.3,23-85.8,32.6-129.4"/>
					<path class="st3" d="M30.7,148c14.2-47.4,24.5-88.4,39-136.1"/>
					<path class="st3" d="M30.7,148C46.1,99.4,60.9,56.3,75.7,9.3"/>
					<path class="st3" d="M30.7,148C46.1,99.4,61.8,64.9,78.6,16.4"/>
					<path class="st3" d="M30.7,148c1.6-7.4,5.4-13.6,7.9-21.1C54.8,85.6,69.4,59.4,85.8,18"/>
					<path class="st3" d="M30.7,148c2.9-3.6,2.9-7.4,4.2-11.1c21.3-45,35.1-77.8,55.1-122.2"/>
					<path class="st3" d="M30.7,148C53.6,99.4,73.2,63,95.9,14.2"/>
					<path class="st3" d="M30.7,148c4.2-8.6,7.9-17.3,12.9-26.1C67.3,83.1,76.5,55.2,100,16.4"/>
					<path class="st3" d="M30.7,148c26.7-48.6,52.8-89.5,79.6-137.8"/>
					<path class="st3" d="M30.7,148c29.2-48.6,52-82.6,82.2-131.6"/>
					<path class="st3" d="M30.7,148c15.4-22.4,65.1-96,82.5-122.5"/>
					<path class="st3" d="M30.7,148c4.2-8.6,12.9-14.9,16.7-23.6c3.7-6.3,10-12.5,15-18.7c26.2-35,32.1-45.8,56.6-79"/>
					<path class="st3" d="M30.7,148c37.9-48.6,56.2-71.5,93.8-120.1"/>
					<path class="st3" d="M30.7,148c22.2-24.1,90-107.6,110.3-131.6"/>
					<path class="st3" d="M30.7,148C73.6,99.4,110.4,59.5,154,11"/>
					<path class="st3" d="M30.7,148c9.1-11.1,20.4-21.1,30.4-32.4c37.5-38.8,65.3-64.5,97.6-101.5"/>
					<path class="st3" d="M30.7,148c3.6-3.5,7.3-7,10.9-10.5c9.2-8.9,18.4-17.8,27.6-26.7C81.4,99,93.7,87.1,105.9,75.3
						c12.8-12.3,25.6-24.7,38.4-37c10.7-10.4,19.2-18.6,30-29"/>
					<path class="st3" d="M30.7,148c54.2-48.6,98.4-88.7,152.2-137"/>
					<path class="st3" d="M30.7,148c22.3-18.7,44.6-37.3,66.9-56c22.3-18.6,44.5-37.2,66.7-55.9c12.5-10.5,16.2-13.7,28.7-24.2"/>
					<line class="st3" x1="30.7" y1="148" x2="205" y2="11.8"/>
					<line class="st3" x1="30.7" y1="148" x2="218.3" y2="11.7"/>
					<line class="st3" x1="30.7" y1="148" x2="222.9" y2="18.3"/>
					<line class="st3" x1="30.7" y1="148" x2="227.3" y2="25.1"/>
					<line class="st3" x1="30.7" y1="148" x2="231.5" y2="32"/>
					<line class="st3" x1="30.7" y1="148" x2="235.4" y2="39.1"/>
					<line class="st3" x1="30.7" y1="148" x2="239.1" y2="46.3"/>
					<line class="st3" x1="30.7" y1="148" x2="242.5" y2="53.7"/>
					<line class="st3" x1="30.7" y1="148" x2="245.7" y2="61.1"/>
					<line class="st3" x1="30.7" y1="148" x2="248.6" y2="68.7"/>
					<line class="st3" x1="30.7" y1="148" x2="251.2" y2="76.3"/>
					<line class="st3" x1="30.7" y1="148" x2="253.6" y2="84.1"/>
					<line class="st3" x1="30.7" y1="148" x2="255.7" y2="91.9"/>
					<line class="st3" x1="30.7" y1="148" x2="257.5" y2="99.8"/>
					<line class="st3" x1="30.7" y1="148" x2="259.1" y2="107.7"/>
					<line class="st3" x1="30.7" y1="148" x2="260.3" y2="115.7"/>
					<line class="st3" x1="30.7" y1="148" x2="261.3" y2="123.8"/>
					<line class="st3" x1="30.7" y1="148" x2="262" y2="131.8"/>
					<line class="st3" x1="30.7" y1="148" x2="262.4" y2="139.9"/>
					<line class="st3" x1="30.7" y1="148" x2="262.6" y2="148"/>
					<path class="st3" d="M30.7,148c-6.7,0-13.4,0-20.1,0.1"/>
					<path class="st3" d="M30.7,148c-6.7-0.2-13.3-0.5-20-0.7"/>
					<path class="st3" d="M30.7,148c-6.6-0.5-13.2-0.9-19.8-1.3"/>
					<path class="st3" d="M30.7,148c-6.9-0.8-13.7-1.5-20.6-2.3"/>
					<path class="st3" d="M30.7,148c-6.9-1-13.7-2-20.6-3"/>
					<path class="st3" d="M30.7,148c-6.8-1.3-13.6-2.5-20.4-3.6"/>
					<path class="st3" d="M30.7,148c-6.7-1-13.4-2.2-20-3.6"/>
					<path class="st3" d="M30.7,148c-6.7-1.5-13.4-3.1-20.1-4.8"/>
					<path class="st3" d="M30.7,148c-6.9-1.9-13.9-3.9-20.8-5.9"/>
					<path class="st3" d="M30.7,148c-7.1-2.2-14.2-4.4-21.2-6.7"/>
					<path class="st3" d="M30.7,148c-7.1-2.5-14.1-5.1-21.2-7.6"/>
					<path class="st3" d="M30.7,148c-7-3.1-14-6-21.1-8.9"/>
					<path class="st3" d="M30.7,148c-6.9-3.3-13.9-6.5-20.9-9.6"/>
					<path class="st3" d="M30.7,148c-7.1-3.4-14.1-6.8-21.1-10.2"/>
					<path class="st3" d="M30.7,148c-7-3.7-14-7.4-21-11.2"/>
					<path class="st3" d="M30.7,148c-7-4.1-14-8.2-21-12.4"/>
					<path class="st3" d="M30.7,148c-7-4.3-14-8.7-20.9-13.1"/>
					<path class="st3" d="M30.7,148c-7.2-4.9-14.3-9.8-21.4-14.7"/>
					<path class="st3" d="M30.7,148c-7.3-5.3-14.5-10.5-21.8-15.7"/>
					<path class="st3" d="M30.7,148c-7.5-5.8-14.1-12.7-21.5-18.5"/>
					<path class="st3" d="M30.7,148c-7.3-5.8-14.4-11.7-21.5-17.7"/>
					<path class="st3" d="M30.7,148c-7.1-7.2-14.4-14.2-21.8-21"/>
					<path class="st3" d="M30.7,148c-6.9-7.7-14.2-15.1-21.6-22.4"/>
					<path class="st3" d="M30.7,148c-7.1-7.5-14.2-14.9-21.4-22.3"/>
					<path class="st3" d="M30.7,148c-7.4-7.4-14.5-15.1-21.5-22.8"/>
					<path class="st3" d="M30.7,148c-7.7-8.9-15.4-17.8-23-26.8"/>
					<path class="st3" d="M30.7,148c-7.3-9.8-14.7-19.5-22.1-29.2"/>
					<path class="st3" d="M30.7,148c-7.5-9.9-14.9-19.9-22.2-29.9"/>
					<path class="st3" d="M30.7,148c-7.4-11.1-14.8-22.1-22.2-33.2"/>
					<path class="st3" d="M30.7,148c-7.3-11.4-14.6-22.9-21.9-34.4"/>
					<path class="st3" d="M30.7,148c-8.3-14.3-16.6-28.5-24.9-42.8"/>
					<path class="st3" d="M30.7,148c-7.9-14.8-15.8-29.6-23.7-44.4"/>
					<path class="st3" d="M30.7,148c-7.8-15.8-15.5-31.7-23.2-47.5"/>
					<path class="st3" d="M30.7,148c-9.8-17.9-16-37.5-25-55.8"/>
					<path class="st3" d="M30.7,148c-7.9-19.7-15.9-39.4-23.8-59"/>
					<path class="st3" d="M30.7,148c-8.2-20.8-15.8-41.8-23.2-62.9"/>
					<path class="st3" d="M30.7,148c-8.2-24.5-16.5-48.9-24.5-73.4"/>
					<path class="st3" d="M30.7,148c-8.9-27.8-15.9-56.2-23.8-84.3"/>
					<path class="st3" d="M30.7,148c-7.2-29.7-14.7-59.3-22-89"/>
					<path class="st3" d="M30.7,148c-6.1-31.2-13-62.2-19.6-93.3"/>
					<path class="st3" d="M30.7,148c-6.3-29.2-10.7-58.7-15.5-88.2c-1.4-8.4-2.7-16.8-4.2-25.1"/>
					<path class="st3" d="M30.7,148C24,115,20.1,81.6,16.1,48.2c-1.1-9.5-2.3-19-3.6-28.5"/>
					<path class="st3" d="M30.7,148c-5.8-42-9.5-85.8-13.3-128.4"/>
					<path class="st3" d="M30.7,148c-4.5-42-5.8-85.8-9-128.6"/>
					<path class="st3" d="M30.7,148c-3.2-43.3-3.2-85.8-4.5-129.1"/>
				</g>
				<g class="st4">
					<path class="st5" d="M30.7,148c0.4,45.2,0.4,90.2,0,134.7"/>
					<path class="st5" d="M30.7,148c0.4,45.2,2.9,88.9,4.6,133.8"/>
					<path class="st5" d="M30.7,148c2.9,45.2,6.7,90.2,9.5,135.6"/>
					<path class="st5" d="M30.7,148c4.2,45.2,10.4,90.2,14.3,135.7"/>
					<path class="st5" d="M30.7,148c1.3,9.3,17,120.7,18.9,134.7"/>
					<path class="st5" d="M30.7,148c7.9,45.2,16.7,91.4,24,136"/>
					<path class="st5" d="M30.7,148c10.4,45.2,20.4,90.2,28.8,135.1"/>
					<path class="st5" d="M30.7,148c11.7,45.2,22.9,91.4,34.1,136.9"/>
					<path class="st5" d="M30.7,148c12.9,45.2,25.4,90.2,38.7,134.8"/>
					<line class="st5" x1="30.7" y1="148" x2="74.8" y2="283.9"/>
					<line class="st5" x1="30.7" y1="148" x2="80.2" y2="284.2"/>
					<path class="st5" d="M30.7,148c0,0,41.7,102.7,54.4,134.6"/>
					<path class="st5" d="M30.7,148c9.8,15.6,2.4,7.1,60.5,135.9"/>
					<line class="st5" x1="39.4" y1="166" x2="97" y2="284"/>
					<path class="st5" d="M30.7,148c17.9,31,61.9,119.5,73,137.3"/>
					<path class="st5" d="M30.7,148c5.8,10.1,70.7,122.4,79.4,137.5"/>
					<path class="st5" d="M30.7,148c25.3,40.7,58.4,93.5,87.1,139.4"/>
					<path class="st5" d="M30.7,148c11.6,16.7,69.5,103.9,92.2,136.7"/>
					<path class="st5" d="M30.7,148c28.8,40.1,83.4,114.3,100.1,137.8"/>
					<path class="st5" d="M30.7,148c31.4,40.1,72.2,92.2,108,138.2"/>
					<path class="st5" d="M30.7,148c38.4,45.9,77.2,91,115.2,137.2"/>
					<path class="st5" d="M30.7,148c35.8,38.6,82.2,92.2,123.8,137.5"/>
					<path class="st5" d="M30.7,148c7.3,6.9,121.9,126.2,121.9,126.2"/>
					<path class="st5" d="M30.7,148c14.4,12.8,139,135.1,144,139"/>
					<path class="st5" d="M30.7,148c27.4,24.5,144,129,154.7,139.3"/>
					<path class="st5" d="M30.7,148c38.7,32,149.5,125.5,161.5,135.5"/>
					<path class="st5" d="M30.7,148c45.3,35.8,114.7,88.4,172.6,134.9"/>
					<line class="st5" x1="30.7" y1="148" x2="218.3" y2="284.3"/>
					<line class="st5" x1="30.7" y1="148" x2="222.9" y2="277.7"/>
					<line class="st5" x1="30.7" y1="148" x2="227.3" y2="270.9"/>
					<line class="st5" x1="30.7" y1="148" x2="231.5" y2="264"/>
					<line class="st5" x1="30.7" y1="148" x2="235.4" y2="256.9"/>
					<line class="st5" x1="30.7" y1="148" x2="239.1" y2="249.7"/>
					<line class="st5" x1="30.7" y1="148" x2="242.5" y2="242.3"/>
					<line class="st5" x1="30.7" y1="148" x2="245.7" y2="234.9"/>
					<line class="st5" x1="30.7" y1="148" x2="248.6" y2="227.3"/>
					<line class="st5" x1="30.7" y1="148" x2="251.2" y2="219.7"/>
					<line class="st5" x1="30.7" y1="148" x2="253.6" y2="211.9"/>
					<line class="st5" x1="30.7" y1="148" x2="255.7" y2="204.1"/>
					<line class="st5" x1="30.7" y1="148" x2="257.5" y2="196.2"/>
					<line class="st5" x1="30.7" y1="148" x2="259.1" y2="188.3"/>
					<line class="st5" x1="30.7" y1="148" x2="260.3" y2="180.3"/>
					<line class="st5" x1="30.7" y1="148" x2="261.3" y2="172.2"/>
					<line class="st5" x1="30.7" y1="148" x2="262" y2="164.2"/>
					<line class="st5" x1="30.7" y1="148" x2="262.4" y2="156.1"/>
					<line class="st5" x1="30.7" y1="148" x2="262.6" y2="148"/>
					<path class="st5" d="M30.7,148c-9.6,0-19.2,0.1-28.8,0.1"/>
					<path class="st5" d="M30.7,148c-9.8,0.4-19.7,0.7-29.5,1"/>
					<path class="st5" d="M30.7,148c-9.8,0.4-19.6,1.1-29.3,1.8"/>
					<path class="st5" d="M30.7,148c-9.4,0.8-18.8,1.7-28.3,2.8"/>
					<path class="st5" d="M30.7,148c-9.4,1.5-18.9,2.9-28.4,4.2"/>
					<path class="st5" d="M30.7,148c-9.3,1.8-18.6,3.6-28,5.2"/>
					<path class="st5" d="M30.7,148c-9.3,1.9-18.7,3.8-28,5.8"/>
					<path class="st5" d="M30.7,148c-9.3,2.6-18.7,4.9-28.1,7.2"/>
					<path class="st5" d="M30.7,148c-9.5,2.6-18.9,5.3-28.4,8.1"/>
					<path class="st5" d="M30.7,148c-10,3.2-19.9,6.5-29.9,9.7"/>
					<path class="st5" d="M30.7,148c-9.7,3.8-19.5,7.4-29.4,10.9"/>
					<path class="st5" d="M30.7,148c-9.7,3.9-19.4,7.8-29.1,11.8"/>
					<path class="st5" d="M30.7,148c-9.6,4.4-19.2,8.8-28.8,13"/>
					<path class="st5" d="M30.7,148c-9.2,5.2-18.6,10-28.1,14.5"/>
					<path class="st5" d="M30.7,148c-9.7,4.4-19.1,9.3-28.4,14.4"/>
					<path class="st5" d="M30.7,148c-9.5,5.1-18.9,10.4-28.2,15.9"/>
					<path class="st5" d="M30.7,148c-10.1,5.7-20,11.8-29.8,17.9"/>
					<path class="st5" d="M30.7,148c-9.2,5.7-18,12-26.9,18"/>
					<path class="st5" d="M30.7,148c-8.9,6.1-17.7,12.2-26.5,18.5"/>
					<path class="st5" d="M30.7,148c-8.7,6.6-17.3,13.3-25.8,20"/>
					<path class="st5" d="M30.7,148c-9.4,5.8-17.1,13.8-25.1,21.3"/>
					<path class="st5" d="M30.7,148C22,155.2,13.5,162.6,5,170.1"/>
					<path class="st5" d="M30.7,148c-8.4,7.9-16.8,15.9-25.1,23.9"/>
					<path class="st5" d="M30.7,148c-8.5,8.8-16.9,17.5-25.4,26.3"/>
					<path class="st5" d="M30.7,148c-8.4,9.2-16.8,18.4-25.2,27.6"/>
					<path class="st5" d="M30.7,148c-8.4,10-17.1,19.8-25.7,29.7"/>
					<path class="st5" d="M30.7,148c-8.5,10.3-16.7,20.7-24.9,31.2"/>
					<path class="st5" d="M30.7,148c-8.2,10.9-16.3,22-24.3,33.2"/>
					<path class="st5" d="M30.7,148c-8.2,11.7-16.2,23.5-24.2,35.4"/>
					<path class="st5" d="M30.7,148c-8.1,13.1-16.3,26.1-24.4,39.1"/>
					<path class="st5" d="M30.7,148c-9.6,16.2-19.1,32.5-28.5,48.8"/>
					<path class="st5" d="M30.7,148c-9.2,18.2-19.5,35.9-29,54"/>
					<path class="st5" d="M30.7,148c-9.6,19.8-19.3,39.5-28.9,59.3"/>
					<path class="st5" d="M30.7,148c-9.7,21.3-18.4,43-28.3,64.2"/>
					<path class="st5" d="M30.7,148c-11.5,22.6-20,47.2-28.9,70.9"/>
					<path class="st5" d="M30.7,148c-10.4,26-19,52.7-28.4,79.1"/>
					<path class="st5" d="M30.7,148c-10.4,28.3-18.8,57.3-27.9,86.1"/>
					<path class="st5" d="M30.7,148C21,181.6,11.4,215.1,1.8,248.7"/>
					<path class="st5" d="M30.7,148c-10.8,38.9-17.1,78.9-29,116.3"/>
					<path class="st5" d="M30.7,148c-9.6,45.2-19.6,88.9-28.4,133.4"/>
					<path class="st5" d="M30.7,148c-8.4,43.9-15.9,88.9-23.5,133.5"/>
					<path class="st5" d="M30.7,148c-5.9,45.2-12.1,88.9-18.8,133.8"/>
					<path class="st5" d="M30.7,148c-5.9,45.2-8.4,88.9-14.1,133.9"/>
					<path class="st5" d="M30.7,148c-3.3,45.2-5.9,88.9-9.4,133.9"/>
					<path class="st5" d="M30.7,148c-2.1,45.2-3.3,90.2-4.7,134.6"/>
				</g>
			</g>
			<line class="st2" x1="28.8" y1="148.8" x2="82.6" y2="149.1"/>
			<line class="st2" x1="24.3" y1="148" x2="264.5" y2="148"/>
			<path class="st0" d="M286.5,6.8c0,0-276.4-3.1-280.4-1.8C4.6,53.7,6.1,286.2,5.9,287.7c1-0.2,280.2,1,280.6,0.9
				C285.9,287.1,286.6,22.2,286.5,6.8z M145.6,261.2c-64,0-115.9-51.9-115.9-115.9c0-64,51.9-115.9,115.9-115.9
				c64,0,115.9,51.9,115.9,115.9C261.5,209.3,209.6,261.2,145.6,261.2z"/>
		</g>
		<circle class="st6" cx="60.8" cy="83.2" r="49.2"/>
		<g>
			<path class="st7" d="M26.8,85.8c-0.8,0.4-1.7,0.5-2.8,0.5c-0.9,0-1.8-0.2-2.6-0.5c-0.8-0.3-1.5-0.8-2.1-1.3
				c-0.6-0.6-1.1-1.3-1.4-2.1s-0.5-1.7-0.5-2.7c0-1,0.2-1.9,0.5-2.7s0.8-1.5,1.4-2.1c0.6-0.6,1.3-1,2.1-1.3c0.8-0.3,1.7-0.4,2.6-0.4
				c0.9,0,1.7,0.1,2.6,0.5c0.8,0.3,1.5,0.8,2.1,1.3l-2,2c-0.3-0.4-0.6-0.7-1.1-0.9c-0.4-0.2-0.9-0.3-1.4-0.3c-0.5,0-1,0.1-1.4,0.3
				s-0.8,0.5-1.1,0.8s-0.6,0.7-0.7,1.2c-0.2,0.5-0.3,1-0.3,1.5c0,0.6,0.1,1.1,0.3,1.5c0.2,0.5,0.4,0.9,0.7,1.2
				c0.3,0.3,0.7,0.6,1.1,0.8c0.4,0.2,0.9,0.3,1.4,0.3c0.6,0,1.1-0.1,1.6-0.3c0.4-0.2,0.8-0.5,1.1-0.9l2.1,2
				C28.3,84.9,27.6,85.4,26.8,85.8z"/>
			<path class="st7" d="M43.2,79.7c0,1-0.2,1.9-0.5,2.7c-0.3,0.8-0.8,1.5-1.4,2.1c-0.6,0.6-1.3,1-2.1,1.3c-0.8,0.3-1.7,0.5-2.7,0.5
				s-1.9-0.2-2.7-0.5c-0.8-0.3-1.5-0.8-2.1-1.3c-0.6-0.6-1.1-1.3-1.4-2.1c-0.3-0.8-0.5-1.7-0.5-2.7c0-1,0.2-1.9,0.5-2.7
				c0.3-0.8,0.8-1.5,1.4-2c0.6-0.6,1.3-1,2.1-1.3c0.8-0.3,1.7-0.4,2.7-0.4c1,0,1.9,0.1,2.7,0.4c0.8,0.3,1.5,0.7,2.1,1.3
				c0.6,0.6,1.1,1.2,1.4,2C43.1,77.8,43.2,78.7,43.2,79.7z M40,79.7c0-0.5-0.1-1-0.3-1.5c-0.2-0.5-0.4-0.9-0.7-1.2
				c-0.3-0.3-0.7-0.6-1.1-0.8C37.5,76.1,37,76,36.5,76c-0.5,0-1,0.1-1.4,0.3c-0.4,0.2-0.8,0.4-1.1,0.8c-0.3,0.3-0.6,0.7-0.7,1.2
				c-0.2,0.5-0.2,1-0.2,1.5c0,0.6,0.1,1.1,0.3,1.5c0.2,0.5,0.4,0.9,0.7,1.2c0.3,0.3,0.7,0.6,1.1,0.8c0.4,0.2,0.9,0.3,1.4,0.3
				s1-0.1,1.4-0.3c0.4-0.2,0.8-0.5,1.1-0.8s0.6-0.7,0.7-1.2C40,80.8,40,80.3,40,79.7z"/>
			<path class="st7" d="M52,76.8c-0.3-0.3-0.6-0.6-1-0.8c-0.4-0.2-0.8-0.3-1.2-0.3c-0.2,0-0.4,0-0.6,0c-0.2,0-0.4,0.1-0.5,0.2
				c-0.2,0.1-0.3,0.2-0.4,0.4c-0.1,0.2-0.2,0.4-0.2,0.6c0,0.2,0,0.4,0.1,0.5c0.1,0.1,0.2,0.3,0.4,0.4c0.2,0.1,0.4,0.2,0.6,0.3
				c0.2,0.1,0.5,0.2,0.8,0.3c0.4,0.1,0.9,0.3,1.3,0.5c0.4,0.2,0.9,0.4,1.2,0.7c0.4,0.3,0.7,0.6,0.9,1c0.2,0.4,0.4,0.9,0.4,1.5
				c0,0.7-0.1,1.3-0.4,1.8c-0.3,0.5-0.6,0.9-1.1,1.3s-0.9,0.6-1.5,0.7c-0.6,0.2-1.2,0.2-1.8,0.2c-0.9,0-1.7-0.1-2.6-0.5
				c-0.8-0.3-1.5-0.7-2.1-1.3l2-2c0.3,0.4,0.7,0.7,1.2,0.9s1,0.4,1.5,0.4c0.2,0,0.4,0,0.6-0.1c0.2,0,0.4-0.1,0.5-0.2
				c0.2-0.1,0.3-0.2,0.4-0.4c0.1-0.2,0.1-0.4,0.1-0.6c0-0.2-0.1-0.4-0.2-0.6c-0.1-0.2-0.3-0.3-0.5-0.4c-0.2-0.1-0.5-0.3-0.8-0.4
				c-0.3-0.1-0.7-0.2-1.1-0.4c-0.4-0.1-0.8-0.3-1.2-0.4c-0.4-0.2-0.7-0.4-1-0.7c-0.3-0.3-0.5-0.6-0.7-1c-0.2-0.4-0.3-0.9-0.3-1.4
				c0-0.7,0.1-1.3,0.4-1.8c0.3-0.5,0.6-0.9,1.1-1.2c0.4-0.3,1-0.5,1.5-0.7c0.6-0.1,1.1-0.2,1.7-0.2c0.7,0,1.4,0.1,2.1,0.4
				s1.4,0.6,1.9,1.1L52,76.8z"/>
			<path class="st7" d="M64.4,86l-1-2.4h-4.8L57.7,86h-3.2l5.2-12.4h2.9L67.8,86H64.4z M61.1,76.9l-1.6,4.3h3.1L61.1,76.9z"/>
			<path class="st7" d="M78.4,77.4c0,0.7-0.1,1.3-0.4,1.8c-0.3,0.5-0.6,0.9-1.1,1.2c-0.4,0.3-1,0.5-1.6,0.7
				c-0.6,0.1-1.2,0.2-1.8,0.2H72V86h-3V73.6h4.6c0.7,0,1.3,0.1,1.9,0.2c0.6,0.1,1.1,0.3,1.5,0.6c0.4,0.3,0.8,0.7,1,1.2
				C78.3,76.1,78.4,76.7,78.4,77.4z M75.4,77.4c0-0.3-0.1-0.5-0.2-0.7c-0.1-0.2-0.3-0.3-0.5-0.4c-0.2-0.1-0.4-0.2-0.7-0.2
				c-0.2,0-0.5,0-0.8,0H72v2.9h1.3c0.3,0,0.5,0,0.8-0.1c0.3,0,0.5-0.1,0.7-0.2c0.2-0.1,0.4-0.3,0.5-0.5
				C75.3,77.9,75.4,77.7,75.4,77.4z"/>
			<path class="st7" d="M87.1,86l-2.7-4.9h-1V86h-2.9V73.6h4.7c0.6,0,1.2,0.1,1.7,0.2c0.6,0.1,1.1,0.3,1.5,0.6
				c0.4,0.3,0.8,0.7,1.1,1.1c0.3,0.5,0.4,1.1,0.4,1.8c0,0.8-0.2,1.5-0.7,2.1c-0.5,0.6-1.1,1-1.9,1.2l3.2,5.3L87.1,86L87.1,86z
				 M87,77.4c0-0.3-0.1-0.5-0.2-0.7c-0.1-0.2-0.3-0.3-0.5-0.4c-0.2-0.1-0.4-0.2-0.6-0.2c-0.2,0-0.5,0-0.7,0h-1.6v2.9h1.4
				c0.2,0,0.5,0,0.8-0.1c0.3,0,0.5-0.1,0.7-0.2c0.2-0.1,0.4-0.3,0.5-0.4C86.9,78,87,77.7,87,77.4z"/>
			<path class="st7" d="M105.2,79.7c0,1-0.2,1.9-0.5,2.7c-0.3,0.8-0.8,1.5-1.4,2.1c-0.6,0.6-1.3,1-2.1,1.3c-0.8,0.3-1.7,0.5-2.7,0.5
				c-1,0-1.9-0.2-2.7-0.5c-0.8-0.3-1.5-0.8-2.1-1.3c-0.6-0.6-1.1-1.3-1.4-2.1c-0.3-0.8-0.5-1.7-0.5-2.7c0-1,0.2-1.9,0.5-2.7
				c0.3-0.8,0.8-1.5,1.4-2c0.6-0.6,1.3-1,2.1-1.3c0.8-0.3,1.7-0.4,2.7-0.4c1,0,1.9,0.1,2.7,0.4c0.8,0.3,1.5,0.7,2.1,1.3
				c0.6,0.6,1.1,1.2,1.4,2C105,77.8,105.2,78.7,105.2,79.7z M102,79.7c0-0.5-0.1-1-0.3-1.5c-0.2-0.5-0.4-0.9-0.7-1.2
				c-0.3-0.3-0.7-0.6-1.1-0.8c-0.4-0.2-0.9-0.3-1.4-0.3c-0.5,0-1,0.1-1.4,0.3c-0.4,0.2-0.8,0.4-1.1,0.8c-0.3,0.3-0.6,0.7-0.7,1.2
				c-0.2,0.5-0.2,1-0.2,1.5c0,0.6,0.1,1.1,0.3,1.5c0.2,0.5,0.4,0.9,0.7,1.2c0.3,0.3,0.7,0.6,1.1,0.8c0.4,0.2,0.9,0.3,1.4,0.3
				s1-0.1,1.4-0.3c0.4-0.2,0.8-0.5,1.1-0.8c0.3-0.3,0.6-0.7,0.7-1.2C101.9,80.8,102,80.3,102,79.7z"/>
			<path class="st7" d="M62.5,101c0,1-0.2,1.9-0.5,2.7c-0.3,0.8-0.8,1.5-1.4,2.1c-0.6,0.6-1.3,1-2.1,1.3s-1.7,0.5-2.7,0.5
				c-1,0-1.9-0.2-2.7-0.5c-0.8-0.3-1.5-0.8-2.1-1.3c-0.6-0.6-1.1-1.3-1.4-2.1c-0.3-0.8-0.5-1.7-0.5-2.7c0-1,0.2-1.9,0.5-2.7
				c0.3-0.8,0.8-1.5,1.4-2c0.6-0.6,1.3-1,2.1-1.3c0.8-0.3,1.7-0.4,2.7-0.4c1,0,1.9,0.1,2.7,0.4c0.8,0.3,1.5,0.7,2.1,1.3
				c0.6,0.6,1.1,1.2,1.4,2C62.4,99.1,62.5,100,62.5,101z M59.3,101c0-0.5-0.1-1-0.3-1.5c-0.2-0.5-0.4-0.9-0.7-1.2s-0.7-0.6-1.1-0.8
				s-0.9-0.3-1.4-0.3c-0.5,0-1,0.1-1.4,0.3c-0.4,0.2-0.8,0.4-1.1,0.8c-0.3,0.3-0.6,0.7-0.7,1.2c-0.2,0.5-0.2,1-0.2,1.5
				c0,0.6,0.1,1.1,0.3,1.5c0.2,0.5,0.4,0.9,0.7,1.2c0.3,0.3,0.7,0.6,1.1,0.8c0.4,0.2,0.9,0.3,1.4,0.3s1-0.1,1.4-0.3s0.8-0.5,1.1-0.8
				s0.6-0.7,0.7-1.2C59.2,102.1,59.3,101.5,59.3,101z"/>
			<path class="st7" d="M70.2,102v5.3h-3V102l-4.7-7.1h3.6l2.6,4.6l2.6-4.6H75L70.2,102z"/>
		</g>
		<rect x="3.3" y="3.7" class="st8" width="286.2" height="286.2"/>
	</g>
</g>
</svg>
